%TF.GenerationSoftware,KiCad,Pcbnew,9.0.7*%
%TF.CreationDate,2026-03-08T16:08:37+04:00*%
%TF.ProjectId,hackpad,6861636b-7061-4642-9e6b-696361645f70,rev?*%
%TF.SameCoordinates,Original*%
%TF.FileFunction,Legend,Top*%
%TF.FilePolarity,Positive*%
%FSLAX46Y46*%
G04 Gerber Fmt 4.6, Leading zero omitted, Abs format (unit mm)*
G04 Created by KiCad (PCBNEW 9.0.7) date 2026-03-08 16:08:37*
%MOMM*%
%LPD*%
G01*
G04 APERTURE LIST*
%ADD10C,0.000000*%
%ADD11C,0.500000*%
%ADD12C,0.150000*%
%ADD13C,0.100000*%
%ADD14C,0.160000*%
%ADD15C,0.120000*%
G04 APERTURE END LIST*
D10*
G36*
X153769767Y-95400624D02*
G01*
X154036976Y-95413591D01*
X154296453Y-95432264D01*
X154533689Y-95456062D01*
X154734173Y-95484409D01*
X155136071Y-95562344D01*
X155527097Y-95653466D01*
X155919527Y-95762035D01*
X156325642Y-95892308D01*
X156757719Y-96048543D01*
X157228037Y-96234999D01*
X157748873Y-96455933D01*
X158332507Y-96715603D01*
X158584701Y-96824634D01*
X158839294Y-96924403D01*
X159097359Y-97015244D01*
X159359972Y-97097485D01*
X159628207Y-97171458D01*
X159903139Y-97237494D01*
X160185844Y-97295922D01*
X160477396Y-97347075D01*
X160598299Y-97363698D01*
X160734710Y-97377861D01*
X161045644Y-97398890D01*
X161393371Y-97410327D01*
X161761066Y-97412339D01*
X162131902Y-97405091D01*
X162489055Y-97388747D01*
X162815698Y-97363474D01*
X163095006Y-97329437D01*
X163333788Y-97290151D01*
X163570064Y-97246334D01*
X163804056Y-97197917D01*
X164035986Y-97144834D01*
X164266077Y-97087018D01*
X164494549Y-97024401D01*
X164721627Y-96956916D01*
X164947531Y-96884495D01*
X165172485Y-96807073D01*
X165396710Y-96724581D01*
X165620428Y-96636952D01*
X165843862Y-96544120D01*
X166067235Y-96446017D01*
X166290767Y-96342575D01*
X166739201Y-96119409D01*
X166849114Y-96063185D01*
X166952411Y-96011591D01*
X167046779Y-95965620D01*
X167129903Y-95926263D01*
X167199466Y-95894513D01*
X167253154Y-95871362D01*
X167273322Y-95863321D01*
X167288652Y-95857802D01*
X167298857Y-95854929D01*
X167301946Y-95854523D01*
X167303645Y-95854825D01*
X167303595Y-95860631D01*
X167299607Y-95873822D01*
X167280604Y-95920806D01*
X167248206Y-95992677D01*
X167203985Y-96086336D01*
X167086355Y-96326611D01*
X166940283Y-96616826D01*
X166864787Y-96767941D01*
X166795369Y-96909631D01*
X166733474Y-97038753D01*
X166680551Y-97152166D01*
X166638045Y-97246727D01*
X166607405Y-97319294D01*
X166596986Y-97346348D01*
X166590076Y-97366726D01*
X166586856Y-97380035D01*
X166586686Y-97383915D01*
X166587506Y-97385881D01*
X166594379Y-97388484D01*
X166609417Y-97390993D01*
X166662250Y-97395693D01*
X166846797Y-97403520D01*
X167113365Y-97408701D01*
X167434172Y-97410576D01*
X167600777Y-97411051D01*
X167756964Y-97412394D01*
X167899261Y-97414482D01*
X168024194Y-97417190D01*
X168128291Y-97420394D01*
X168208079Y-97423970D01*
X168260086Y-97427794D01*
X168274587Y-97429760D01*
X168280840Y-97431742D01*
X168281257Y-97433547D01*
X168280545Y-97436297D01*
X168275837Y-97444537D01*
X168266933Y-97456260D01*
X168254050Y-97471264D01*
X168217215Y-97510311D01*
X168167068Y-97560065D01*
X168105345Y-97618914D01*
X168033784Y-97685246D01*
X167954119Y-97757448D01*
X167868088Y-97833909D01*
X167530681Y-98124665D01*
X167194717Y-98404120D01*
X166860561Y-98672051D01*
X166528580Y-98928236D01*
X166199142Y-99172453D01*
X165872614Y-99404480D01*
X165549362Y-99624093D01*
X165229752Y-99831072D01*
X164914153Y-100025194D01*
X164602931Y-100206236D01*
X164296453Y-100373977D01*
X163995086Y-100528194D01*
X163699196Y-100668665D01*
X163409151Y-100795168D01*
X163125317Y-100907481D01*
X162848062Y-101005381D01*
X162547705Y-101097647D01*
X162403686Y-101136760D01*
X162262230Y-101171352D01*
X162122180Y-101201540D01*
X161982378Y-101227445D01*
X161841667Y-101249184D01*
X161698888Y-101266877D01*
X161552885Y-101280643D01*
X161402500Y-101290600D01*
X161246575Y-101296868D01*
X161083953Y-101299564D01*
X160733986Y-101294721D01*
X160343340Y-101277020D01*
X159761911Y-101236030D01*
X159218806Y-101181935D01*
X158694138Y-101110890D01*
X158168024Y-101019051D01*
X157620578Y-100902572D01*
X157031914Y-100757610D01*
X156382148Y-100580318D01*
X155651396Y-100366853D01*
X155035502Y-100185435D01*
X154478685Y-100026753D01*
X154291474Y-99975672D01*
X157686217Y-99975672D01*
X157686675Y-99986363D01*
X157687909Y-99996377D01*
X157689910Y-100005757D01*
X157692671Y-100014545D01*
X157696184Y-100022784D01*
X157700440Y-100030517D01*
X157705434Y-100037786D01*
X157711155Y-100044634D01*
X157717598Y-100051103D01*
X157724754Y-100057236D01*
X157732615Y-100063077D01*
X157741174Y-100068666D01*
X157750423Y-100074048D01*
X157766712Y-100081539D01*
X157783788Y-100086854D01*
X157801591Y-100090046D01*
X157820062Y-100091170D01*
X157839140Y-100090281D01*
X157858765Y-100087434D01*
X157878877Y-100082685D01*
X157899416Y-100076087D01*
X157920323Y-100067696D01*
X157941535Y-100057567D01*
X157984641Y-100032314D01*
X158028254Y-100000766D01*
X158071892Y-99963364D01*
X158115075Y-99920545D01*
X158157323Y-99872751D01*
X158198156Y-99820419D01*
X158237091Y-99763989D01*
X158273650Y-99703900D01*
X158307350Y-99640593D01*
X158337713Y-99574504D01*
X158364256Y-99506075D01*
X158373322Y-99481461D01*
X158382047Y-99459146D01*
X158390503Y-99439033D01*
X158398762Y-99421023D01*
X158402841Y-99412776D01*
X158406898Y-99405018D01*
X158410942Y-99397737D01*
X158414982Y-99390920D01*
X158419027Y-99384555D01*
X158423086Y-99378630D01*
X158427169Y-99373133D01*
X158431284Y-99368051D01*
X158435440Y-99363372D01*
X158439647Y-99359084D01*
X158443913Y-99355175D01*
X158448248Y-99351632D01*
X158452660Y-99348443D01*
X158457158Y-99345595D01*
X158461753Y-99343077D01*
X158466452Y-99340876D01*
X158471264Y-99338980D01*
X158476199Y-99337377D01*
X158481267Y-99336054D01*
X158486474Y-99334999D01*
X158491832Y-99334200D01*
X158497349Y-99333644D01*
X158503034Y-99333320D01*
X158508895Y-99333214D01*
X158522074Y-99333672D01*
X158533955Y-99335392D01*
X158544730Y-99338888D01*
X158554591Y-99344680D01*
X158563729Y-99353282D01*
X158572334Y-99365212D01*
X158580597Y-99380987D01*
X158588712Y-99401124D01*
X158596867Y-99426139D01*
X158605255Y-99456549D01*
X158623493Y-99535621D01*
X158644956Y-99642474D01*
X158671173Y-99781242D01*
X158682801Y-99842918D01*
X158693918Y-99899767D01*
X158704590Y-99952007D01*
X158714885Y-99999854D01*
X158724869Y-100043526D01*
X158734611Y-100083239D01*
X158744178Y-100119211D01*
X158753635Y-100151659D01*
X158763051Y-100180799D01*
X158772494Y-100206849D01*
X158782029Y-100230026D01*
X158791724Y-100250547D01*
X158801647Y-100268628D01*
X158811864Y-100284488D01*
X158822443Y-100298342D01*
X158833451Y-100310408D01*
X158847801Y-100324260D01*
X158862380Y-100336722D01*
X158877153Y-100347809D01*
X158892080Y-100357537D01*
X158907123Y-100365922D01*
X158922244Y-100372978D01*
X158937405Y-100378722D01*
X158952569Y-100383169D01*
X158967696Y-100386334D01*
X158982748Y-100388233D01*
X158997689Y-100388882D01*
X159012479Y-100388295D01*
X159027080Y-100386489D01*
X159041455Y-100383479D01*
X159055564Y-100379281D01*
X159069371Y-100373909D01*
X159082837Y-100367379D01*
X159095923Y-100359708D01*
X159108593Y-100350910D01*
X159120806Y-100341001D01*
X159132527Y-100329997D01*
X159143715Y-100317912D01*
X159154334Y-100304763D01*
X159164346Y-100290565D01*
X159173711Y-100275333D01*
X159182392Y-100259084D01*
X159190351Y-100241831D01*
X159197549Y-100223592D01*
X159203950Y-100204381D01*
X159209513Y-100184215D01*
X159214202Y-100163107D01*
X159217979Y-100141075D01*
X159220014Y-100110631D01*
X159218385Y-100071650D01*
X159213398Y-100025268D01*
X159205356Y-99972624D01*
X159194565Y-99914853D01*
X159181330Y-99853093D01*
X159148746Y-99722152D01*
X159110044Y-99588896D01*
X159089160Y-99524241D01*
X159067662Y-99462419D01*
X159045854Y-99404566D01*
X159024040Y-99351818D01*
X159002526Y-99305313D01*
X159000831Y-99302140D01*
X160436702Y-99302140D01*
X160437782Y-99394587D01*
X160442118Y-99491964D01*
X160448209Y-99577288D01*
X160455954Y-99657460D01*
X160465434Y-99732702D01*
X160476734Y-99803236D01*
X160489936Y-99869284D01*
X160505122Y-99931069D01*
X160522375Y-99988813D01*
X160531802Y-100016240D01*
X160541778Y-100042739D01*
X160552311Y-100068339D01*
X160563413Y-100093067D01*
X160575093Y-100116952D01*
X160587363Y-100140021D01*
X160600232Y-100162302D01*
X160613711Y-100183823D01*
X160627810Y-100204611D01*
X160642540Y-100224695D01*
X160657910Y-100244101D01*
X160673931Y-100262859D01*
X160690614Y-100280995D01*
X160707969Y-100298537D01*
X160726005Y-100315513D01*
X160744735Y-100331952D01*
X160764167Y-100347880D01*
X160784312Y-100363325D01*
X160810539Y-100381170D01*
X160838189Y-100397029D01*
X160867114Y-100410941D01*
X160897166Y-100422946D01*
X160928198Y-100433082D01*
X160960061Y-100441390D01*
X160992607Y-100447909D01*
X161025689Y-100452677D01*
X161059159Y-100455735D01*
X161092868Y-100457122D01*
X161126669Y-100456878D01*
X161160413Y-100455041D01*
X161193954Y-100451651D01*
X161227142Y-100446747D01*
X161259831Y-100440370D01*
X161291871Y-100432558D01*
X161323116Y-100423351D01*
X161353417Y-100412787D01*
X161382626Y-100400908D01*
X161410596Y-100387751D01*
X161437178Y-100373357D01*
X161462225Y-100357764D01*
X161485589Y-100341013D01*
X161507121Y-100323142D01*
X161526674Y-100304191D01*
X161544099Y-100284199D01*
X161559250Y-100263206D01*
X161571978Y-100241252D01*
X161582135Y-100218375D01*
X161589573Y-100194615D01*
X161594144Y-100170011D01*
X161595701Y-100144603D01*
X161594976Y-100118798D01*
X161592711Y-100095586D01*
X161590959Y-100084937D01*
X161588771Y-100074917D01*
X161586132Y-100065520D01*
X161583023Y-100056739D01*
X161579429Y-100048568D01*
X161575332Y-100041000D01*
X161570716Y-100034030D01*
X161565563Y-100027649D01*
X161559858Y-100021852D01*
X161553583Y-100016633D01*
X161546722Y-100011985D01*
X161539257Y-100007902D01*
X161531172Y-100004376D01*
X161522450Y-100001403D01*
X161513074Y-99998974D01*
X161503028Y-99997084D01*
X161492295Y-99995727D01*
X161480857Y-99994895D01*
X161455803Y-99994783D01*
X161427731Y-99996697D01*
X161396506Y-100000585D01*
X161361995Y-100006395D01*
X161324062Y-100014076D01*
X161279032Y-100022815D01*
X161237659Y-100029089D01*
X161218248Y-100031255D01*
X161199636Y-100032749D01*
X161181783Y-100033551D01*
X161164651Y-100033644D01*
X161148201Y-100033007D01*
X161132394Y-100031624D01*
X161117192Y-100029474D01*
X161102556Y-100026540D01*
X161088447Y-100022802D01*
X161074827Y-100018241D01*
X161061655Y-100012840D01*
X161048895Y-100006579D01*
X161036507Y-99999439D01*
X161024452Y-99991402D01*
X161012692Y-99982449D01*
X161001187Y-99972562D01*
X160989900Y-99961721D01*
X160978791Y-99949908D01*
X160967821Y-99937104D01*
X160956952Y-99923290D01*
X160946145Y-99908448D01*
X160935362Y-99892559D01*
X160913709Y-99857565D01*
X160891685Y-99818157D01*
X160868978Y-99774186D01*
X160855118Y-99744582D01*
X160842596Y-99716440D01*
X160831345Y-99689486D01*
X160821298Y-99663447D01*
X160812389Y-99638049D01*
X160804548Y-99613018D01*
X160797711Y-99588080D01*
X160791809Y-99562961D01*
X160786775Y-99537387D01*
X160782541Y-99511085D01*
X160779042Y-99483780D01*
X160776209Y-99455198D01*
X160773976Y-99425067D01*
X160772275Y-99393111D01*
X160770201Y-99322631D01*
X160770870Y-99270028D01*
X160772902Y-99220628D01*
X160776340Y-99174330D01*
X160781226Y-99131028D01*
X160784224Y-99110469D01*
X160787599Y-99090621D01*
X160791357Y-99071470D01*
X160795502Y-99053004D01*
X160800040Y-99035210D01*
X160804976Y-99018074D01*
X160810315Y-99001585D01*
X160816062Y-98985728D01*
X160822223Y-98970492D01*
X160828802Y-98955863D01*
X160835805Y-98941828D01*
X160843237Y-98928374D01*
X160851103Y-98915489D01*
X160859409Y-98903159D01*
X160868158Y-98891373D01*
X160877358Y-98880115D01*
X160887012Y-98869375D01*
X160897125Y-98859138D01*
X160907705Y-98849392D01*
X160918754Y-98840125D01*
X160930278Y-98831322D01*
X160942284Y-98822971D01*
X160954775Y-98815060D01*
X160967757Y-98807575D01*
X160982886Y-98798936D01*
X160996682Y-98791542D01*
X161009382Y-98785398D01*
X161021224Y-98780511D01*
X161026898Y-98778539D01*
X161032447Y-98776884D01*
X161037900Y-98775545D01*
X161043287Y-98774523D01*
X161048638Y-98773819D01*
X161053982Y-98773434D01*
X161059350Y-98773367D01*
X161064770Y-98773620D01*
X161070274Y-98774194D01*
X161075889Y-98775089D01*
X161081647Y-98776305D01*
X161087577Y-98777844D01*
X161100071Y-98781891D01*
X161113608Y-98787236D01*
X161128427Y-98793882D01*
X161144766Y-98801836D01*
X161182951Y-98821687D01*
X161206864Y-98833572D01*
X161229639Y-98843472D01*
X161251257Y-98851446D01*
X161271697Y-98857557D01*
X161290938Y-98861864D01*
X161308959Y-98864428D01*
X161325740Y-98865310D01*
X161341260Y-98864571D01*
X161355499Y-98862271D01*
X161368435Y-98858472D01*
X161380049Y-98853233D01*
X161390318Y-98846615D01*
X161399224Y-98838680D01*
X161406745Y-98829488D01*
X161412860Y-98819100D01*
X161417548Y-98807576D01*
X161420790Y-98794977D01*
X161422564Y-98781364D01*
X161422850Y-98766797D01*
X161421627Y-98751338D01*
X161418875Y-98735047D01*
X161414572Y-98717984D01*
X161408698Y-98700211D01*
X161401232Y-98681788D01*
X161392154Y-98662776D01*
X161381444Y-98643236D01*
X161369079Y-98623228D01*
X161355040Y-98602813D01*
X161341119Y-98584443D01*
X161775617Y-98584443D01*
X161777188Y-98632707D01*
X161780578Y-98687286D01*
X161792815Y-98817828D01*
X161812328Y-98980946D01*
X161839117Y-99181520D01*
X161867835Y-99389824D01*
X161894239Y-99596475D01*
X161916012Y-99777328D01*
X161930840Y-99908242D01*
X161936966Y-99962487D01*
X161943800Y-100010313D01*
X161951885Y-100052001D01*
X161961763Y-100087828D01*
X161967544Y-100103631D01*
X161973976Y-100118074D01*
X161981129Y-100131192D01*
X161989068Y-100143019D01*
X161997863Y-100153590D01*
X162007582Y-100162940D01*
X162018291Y-100171104D01*
X162030058Y-100178117D01*
X162042952Y-100184014D01*
X162057041Y-100188830D01*
X162072392Y-100192599D01*
X162089073Y-100195356D01*
X162107151Y-100197137D01*
X162126696Y-100197976D01*
X162170453Y-100196969D01*
X162220887Y-100192612D01*
X162278540Y-100185187D01*
X162343954Y-100174970D01*
X162417674Y-100162242D01*
X162502375Y-100147182D01*
X162580668Y-100132380D01*
X162652759Y-100117764D01*
X162718857Y-100103262D01*
X162779167Y-100088801D01*
X162833895Y-100074309D01*
X162883250Y-100059714D01*
X162927436Y-100044943D01*
X162947657Y-100037470D01*
X162966662Y-100029925D01*
X162984479Y-100022299D01*
X163001134Y-100014585D01*
X163016651Y-100006773D01*
X163031058Y-99998853D01*
X163044379Y-99990817D01*
X163056641Y-99982656D01*
X163067870Y-99974360D01*
X163078091Y-99965921D01*
X163087330Y-99957330D01*
X163095612Y-99948577D01*
X163102965Y-99939654D01*
X163109414Y-99930551D01*
X163114983Y-99921259D01*
X163119701Y-99911770D01*
X163128790Y-99889606D01*
X163132207Y-99879258D01*
X163134866Y-99869395D01*
X163136763Y-99860012D01*
X163137894Y-99851107D01*
X163138253Y-99842674D01*
X163137836Y-99834710D01*
X163136639Y-99827211D01*
X163134657Y-99820173D01*
X163131886Y-99813593D01*
X163128321Y-99807466D01*
X163123957Y-99801789D01*
X163118791Y-99796557D01*
X163112817Y-99791767D01*
X163106031Y-99787416D01*
X163098428Y-99783498D01*
X163090005Y-99780010D01*
X163080756Y-99776949D01*
X163070677Y-99774310D01*
X163048011Y-99770285D01*
X163021970Y-99767903D01*
X162992519Y-99767133D01*
X162959621Y-99767944D01*
X162923239Y-99770306D01*
X162883339Y-99774186D01*
X162738308Y-99790888D01*
X162612748Y-99803952D01*
X162557257Y-99809120D01*
X162506619Y-99813378D01*
X162460827Y-99816726D01*
X162419878Y-99819166D01*
X162383766Y-99820695D01*
X162352485Y-99821315D01*
X162326031Y-99821026D01*
X162304398Y-99819827D01*
X162287582Y-99817719D01*
X162280978Y-99816323D01*
X162275576Y-99814701D01*
X162271376Y-99812851D01*
X162268377Y-99810773D01*
X162266578Y-99808469D01*
X162265978Y-99805936D01*
X162262123Y-99697721D01*
X162255974Y-99586787D01*
X162247716Y-99474220D01*
X162237536Y-99361106D01*
X162212152Y-99137574D01*
X162181312Y-98924874D01*
X162164310Y-98825299D01*
X162146503Y-98731687D01*
X162128075Y-98645124D01*
X162109213Y-98566694D01*
X162090103Y-98497484D01*
X162070931Y-98438578D01*
X162051883Y-98391062D01*
X162033145Y-98356020D01*
X162027161Y-98346728D01*
X162021119Y-98338036D01*
X162015021Y-98329941D01*
X162008871Y-98322444D01*
X162002671Y-98315544D01*
X161996426Y-98309240D01*
X161990138Y-98303531D01*
X161983811Y-98298418D01*
X161977448Y-98293899D01*
X161971051Y-98289973D01*
X161964625Y-98286641D01*
X161958173Y-98283900D01*
X161951697Y-98281752D01*
X161945201Y-98280194D01*
X161938688Y-98279227D01*
X161932162Y-98278850D01*
X161925626Y-98279062D01*
X161919082Y-98279862D01*
X161912535Y-98281250D01*
X161905986Y-98283225D01*
X161899441Y-98285787D01*
X161892901Y-98288934D01*
X161886370Y-98292667D01*
X161879852Y-98296985D01*
X161873349Y-98301886D01*
X161866865Y-98307371D01*
X161860403Y-98313438D01*
X161853966Y-98320087D01*
X161847557Y-98327318D01*
X161841180Y-98335130D01*
X161834838Y-98343521D01*
X161828534Y-98352492D01*
X161815553Y-98372189D01*
X161804391Y-98393323D01*
X161795048Y-98416504D01*
X161787524Y-98442340D01*
X161781818Y-98471443D01*
X161777932Y-98504421D01*
X161775865Y-98541884D01*
X161775617Y-98584443D01*
X161341119Y-98584443D01*
X161339306Y-98582052D01*
X161321857Y-98561005D01*
X161302671Y-98539733D01*
X161281728Y-98518298D01*
X161251414Y-98488945D01*
X161221281Y-98463059D01*
X161206261Y-98451415D01*
X161191261Y-98440636D01*
X161176273Y-98430721D01*
X161161288Y-98421670D01*
X161146298Y-98413481D01*
X161131294Y-98406155D01*
X161116268Y-98399691D01*
X161101212Y-98394088D01*
X161086118Y-98389345D01*
X161070976Y-98385462D01*
X161055778Y-98382439D01*
X161040517Y-98380273D01*
X161025183Y-98378966D01*
X161009768Y-98378515D01*
X160994265Y-98378922D01*
X160978664Y-98380184D01*
X160962956Y-98382301D01*
X160947135Y-98385273D01*
X160931191Y-98389099D01*
X160915115Y-98393778D01*
X160898900Y-98399310D01*
X160882538Y-98405694D01*
X160866019Y-98412929D01*
X160849335Y-98421015D01*
X160815439Y-98439736D01*
X160780784Y-98461853D01*
X160733030Y-98497219D01*
X160688965Y-98535923D01*
X160648559Y-98578079D01*
X160611781Y-98623800D01*
X160578600Y-98673201D01*
X160548984Y-98726395D01*
X160522903Y-98783496D01*
X160500326Y-98844617D01*
X160481221Y-98909872D01*
X160465558Y-98979376D01*
X160453305Y-99053240D01*
X160444433Y-99131580D01*
X160438909Y-99214509D01*
X160436702Y-99302140D01*
X159000831Y-99302140D01*
X158981617Y-99266187D01*
X158911062Y-99146242D01*
X159066285Y-98983964D01*
X159109475Y-98938672D01*
X159150366Y-98894144D01*
X159188890Y-98850484D01*
X159224979Y-98807796D01*
X159258568Y-98766183D01*
X159289589Y-98725747D01*
X159317973Y-98686594D01*
X159343656Y-98648825D01*
X159366568Y-98612545D01*
X159386644Y-98577856D01*
X159403815Y-98544863D01*
X159418015Y-98513667D01*
X159429176Y-98484374D01*
X159437231Y-98457085D01*
X159440073Y-98444225D01*
X159442114Y-98431905D01*
X159443344Y-98420138D01*
X159443756Y-98408937D01*
X159443137Y-98388648D01*
X159441282Y-98370116D01*
X159438196Y-98353340D01*
X159433883Y-98338319D01*
X159428347Y-98325052D01*
X159421595Y-98313539D01*
X159413629Y-98303779D01*
X159404455Y-98295772D01*
X159394076Y-98289517D01*
X159382498Y-98285012D01*
X159369725Y-98282258D01*
X159355762Y-98281255D01*
X159340612Y-98282000D01*
X159324281Y-98284494D01*
X159306773Y-98288736D01*
X159288093Y-98294725D01*
X159247233Y-98311943D01*
X159201738Y-98336142D01*
X159151644Y-98367317D01*
X159096987Y-98405464D01*
X159037803Y-98450577D01*
X158974128Y-98502650D01*
X158905999Y-98561679D01*
X158833451Y-98627659D01*
X158808127Y-98650797D01*
X158783821Y-98672535D01*
X158760641Y-98692794D01*
X158738697Y-98711499D01*
X158718096Y-98728570D01*
X158698947Y-98743931D01*
X158681359Y-98757504D01*
X158665440Y-98769211D01*
X158651299Y-98778975D01*
X158639044Y-98786719D01*
X158633658Y-98789809D01*
X158628784Y-98792365D01*
X158624435Y-98794376D01*
X158620627Y-98795835D01*
X158617371Y-98796730D01*
X158614681Y-98797052D01*
X158612572Y-98796791D01*
X158611739Y-98796439D01*
X158611056Y-98795938D01*
X158610525Y-98795286D01*
X158610148Y-98794483D01*
X158609860Y-98792416D01*
X158610206Y-98789728D01*
X158611201Y-98786409D01*
X158616789Y-98765035D01*
X158622832Y-98731177D01*
X158629122Y-98686570D01*
X158635455Y-98632950D01*
X158641621Y-98572055D01*
X158647416Y-98505620D01*
X158652632Y-98435381D01*
X158657062Y-98363075D01*
X158660725Y-98302073D01*
X158662080Y-98277671D01*
X162908268Y-98277671D01*
X162908971Y-98305453D01*
X162911245Y-98335106D01*
X162915090Y-98366603D01*
X162923501Y-98419185D01*
X162935257Y-98479513D01*
X162967289Y-98618343D01*
X163008168Y-98772966D01*
X163054877Y-98933253D01*
X163104397Y-99089074D01*
X163153710Y-99230302D01*
X163177346Y-99292279D01*
X163199799Y-99346809D01*
X163220691Y-99392626D01*
X163239646Y-99428464D01*
X163258957Y-99459076D01*
X163281028Y-99488650D01*
X163305641Y-99517056D01*
X163332580Y-99544164D01*
X163361628Y-99569847D01*
X163392566Y-99593974D01*
X163425180Y-99616416D01*
X163459250Y-99637044D01*
X163494560Y-99655730D01*
X163530894Y-99672343D01*
X163568034Y-99686754D01*
X163605763Y-99698836D01*
X163643864Y-99708457D01*
X163682120Y-99715489D01*
X163720314Y-99719803D01*
X163758229Y-99721270D01*
X163795198Y-99720156D01*
X163830694Y-99716820D01*
X163864714Y-99711274D01*
X163897253Y-99703528D01*
X163928305Y-99693594D01*
X163957868Y-99681482D01*
X163985936Y-99667203D01*
X164012505Y-99650770D01*
X164037570Y-99632191D01*
X164061126Y-99611479D01*
X164083170Y-99588644D01*
X164103696Y-99563698D01*
X164122701Y-99536651D01*
X164140179Y-99507515D01*
X164156126Y-99476299D01*
X164170538Y-99443016D01*
X164194737Y-99370291D01*
X164212740Y-99289427D01*
X164224511Y-99200512D01*
X164230014Y-99103633D01*
X164229212Y-98998879D01*
X164222069Y-98886337D01*
X164208550Y-98766096D01*
X164188617Y-98638242D01*
X164176704Y-98571575D01*
X164164750Y-98509058D01*
X164152712Y-98450540D01*
X164140551Y-98395873D01*
X164128225Y-98344905D01*
X164115691Y-98297488D01*
X164102910Y-98253471D01*
X164089839Y-98212704D01*
X164076438Y-98175038D01*
X164062665Y-98140322D01*
X164048478Y-98108408D01*
X164033836Y-98079144D01*
X164018699Y-98052382D01*
X164003024Y-98027971D01*
X163986770Y-98005761D01*
X163969896Y-97985603D01*
X163962240Y-97977624D01*
X163954493Y-97970222D01*
X163946668Y-97963394D01*
X163938780Y-97957140D01*
X163930839Y-97951456D01*
X163922860Y-97946342D01*
X163914854Y-97941795D01*
X163906836Y-97937813D01*
X163898818Y-97934394D01*
X163890813Y-97931537D01*
X163882834Y-97929239D01*
X163874893Y-97927498D01*
X163867004Y-97926313D01*
X163859180Y-97925682D01*
X163851433Y-97925602D01*
X163843777Y-97926072D01*
X163836224Y-97927090D01*
X163828787Y-97928653D01*
X163821480Y-97930761D01*
X163814314Y-97933410D01*
X163807304Y-97936599D01*
X163800461Y-97940327D01*
X163793800Y-97944591D01*
X163787332Y-97949388D01*
X163781071Y-97954719D01*
X163775030Y-97960579D01*
X163769221Y-97966968D01*
X163763657Y-97973883D01*
X163758352Y-97981323D01*
X163753318Y-97989285D01*
X163748569Y-97997768D01*
X163744116Y-98006770D01*
X163738622Y-98019788D01*
X163734057Y-98033855D01*
X163730443Y-98049194D01*
X163727801Y-98066026D01*
X163726151Y-98084573D01*
X163725514Y-98105058D01*
X163725910Y-98127704D01*
X163727360Y-98152732D01*
X163729886Y-98180364D01*
X163733506Y-98210823D01*
X163744117Y-98281110D01*
X163759358Y-98365370D01*
X163779395Y-98465381D01*
X163793822Y-98539659D01*
X163806673Y-98612790D01*
X163817943Y-98684453D01*
X163827627Y-98754328D01*
X163835718Y-98822095D01*
X163842213Y-98887433D01*
X163847106Y-98950022D01*
X163850392Y-99009541D01*
X163852065Y-99065670D01*
X163852121Y-99118089D01*
X163850554Y-99166477D01*
X163847360Y-99210514D01*
X163842532Y-99249879D01*
X163836067Y-99284253D01*
X163827958Y-99313314D01*
X163818201Y-99336742D01*
X163813282Y-99344471D01*
X163807790Y-99351776D01*
X163801729Y-99358648D01*
X163795105Y-99365074D01*
X163787922Y-99371047D01*
X163780187Y-99376553D01*
X163771904Y-99381585D01*
X163763079Y-99386131D01*
X163753716Y-99390181D01*
X163743820Y-99393724D01*
X163733398Y-99396750D01*
X163722454Y-99399250D01*
X163710993Y-99401212D01*
X163699020Y-99402626D01*
X163686541Y-99403482D01*
X163673561Y-99403770D01*
X163657125Y-99403500D01*
X163642115Y-99402605D01*
X163628386Y-99400956D01*
X163615795Y-99398423D01*
X163609880Y-99396785D01*
X163604195Y-99394877D01*
X163598722Y-99392684D01*
X163593443Y-99390189D01*
X163588340Y-99387377D01*
X163583394Y-99384230D01*
X163578588Y-99380733D01*
X163573903Y-99376870D01*
X163569321Y-99372625D01*
X163564825Y-99367981D01*
X163560396Y-99362923D01*
X163556016Y-99357433D01*
X163547331Y-99345097D01*
X163538625Y-99330844D01*
X163529753Y-99314544D01*
X163520572Y-99296069D01*
X163510936Y-99275289D01*
X163500700Y-99252075D01*
X163485452Y-99213449D01*
X163466690Y-99160022D01*
X163445200Y-99094194D01*
X163421766Y-99018360D01*
X163397175Y-98934920D01*
X163372212Y-98846271D01*
X163347663Y-98754810D01*
X163324312Y-98662936D01*
X163303740Y-98583346D01*
X163284259Y-98511063D01*
X163265719Y-98445787D01*
X163247969Y-98387219D01*
X163239343Y-98360356D01*
X163230859Y-98335058D01*
X163222498Y-98311287D01*
X163214241Y-98289006D01*
X163206069Y-98268177D01*
X163197964Y-98248762D01*
X163189906Y-98230725D01*
X163181878Y-98214027D01*
X163173860Y-98198631D01*
X163165833Y-98184501D01*
X163157780Y-98171597D01*
X163149680Y-98159884D01*
X163141516Y-98149323D01*
X163133269Y-98139876D01*
X163124919Y-98131508D01*
X163116449Y-98124179D01*
X163107839Y-98117853D01*
X163099071Y-98112491D01*
X163090126Y-98108058D01*
X163080985Y-98104514D01*
X163071630Y-98101823D01*
X163062041Y-98099948D01*
X163052201Y-98098850D01*
X163042090Y-98098492D01*
X163032034Y-98098771D01*
X163022370Y-98099604D01*
X163013099Y-98100989D01*
X163004221Y-98102923D01*
X162995736Y-98105401D01*
X162987644Y-98108422D01*
X162979944Y-98111981D01*
X162972637Y-98116076D01*
X162965722Y-98120703D01*
X162959201Y-98125859D01*
X162953072Y-98131541D01*
X162947336Y-98137746D01*
X162941992Y-98144469D01*
X162937042Y-98151709D01*
X162932484Y-98159462D01*
X162928319Y-98167725D01*
X162924546Y-98176494D01*
X162921167Y-98185766D01*
X162915586Y-98205807D01*
X162911575Y-98227822D01*
X162909136Y-98251785D01*
X162908268Y-98277671D01*
X158662080Y-98277671D01*
X158663711Y-98248285D01*
X158665922Y-98201070D01*
X158667260Y-98159787D01*
X158667626Y-98123796D01*
X158667414Y-98107585D01*
X158666922Y-98092456D01*
X158666138Y-98078330D01*
X158665050Y-98065126D01*
X158663646Y-98052765D01*
X158661913Y-98041166D01*
X158659839Y-98030249D01*
X158657411Y-98019934D01*
X158654618Y-98010141D01*
X158651447Y-98000789D01*
X158647885Y-97991800D01*
X158643922Y-97983092D01*
X158639543Y-97974585D01*
X158634738Y-97966201D01*
X158629493Y-97957857D01*
X158623797Y-97949475D01*
X158617637Y-97940973D01*
X158611001Y-97932273D01*
X158596252Y-97913956D01*
X158579451Y-97893881D01*
X158568710Y-97881567D01*
X158557685Y-97869786D01*
X158546422Y-97858573D01*
X158544182Y-97856499D01*
X164355727Y-97856499D01*
X164356077Y-97871116D01*
X164357284Y-97886493D01*
X164359306Y-97902694D01*
X164365626Y-97937833D01*
X164374695Y-97977055D01*
X164386173Y-98020881D01*
X164559034Y-98628982D01*
X164661009Y-98980822D01*
X164721312Y-99181520D01*
X164725971Y-99192606D01*
X164733240Y-99202082D01*
X164742980Y-99209989D01*
X164755053Y-99216370D01*
X164769320Y-99221269D01*
X164785641Y-99224726D01*
X164803878Y-99226786D01*
X164823893Y-99227491D01*
X164868697Y-99225006D01*
X164918943Y-99217611D01*
X164973519Y-99205648D01*
X165031315Y-99189457D01*
X165091219Y-99169381D01*
X165152120Y-99145760D01*
X165212908Y-99118935D01*
X165272471Y-99089247D01*
X165329699Y-99057037D01*
X165383479Y-99022646D01*
X165432702Y-98986416D01*
X165476256Y-98948687D01*
X165505242Y-98919930D01*
X165531370Y-98891767D01*
X165554677Y-98864048D01*
X165575199Y-98836625D01*
X165592971Y-98809345D01*
X165608031Y-98782061D01*
X165620413Y-98754622D01*
X165625612Y-98740797D01*
X165630155Y-98726878D01*
X165634047Y-98712844D01*
X165637293Y-98698679D01*
X165639896Y-98684362D01*
X165641862Y-98669875D01*
X165643194Y-98655200D01*
X165643899Y-98640317D01*
X165643440Y-98609854D01*
X165640521Y-98578338D01*
X165635179Y-98545617D01*
X165627449Y-98511543D01*
X165617368Y-98475964D01*
X165608308Y-98449757D01*
X165597145Y-98422910D01*
X165584090Y-98395690D01*
X165569357Y-98368367D01*
X165553155Y-98341209D01*
X165535698Y-98314486D01*
X165517197Y-98288465D01*
X165497864Y-98263416D01*
X165477911Y-98239607D01*
X165457549Y-98217307D01*
X165436992Y-98196784D01*
X165416449Y-98178308D01*
X165396134Y-98162147D01*
X165386128Y-98155019D01*
X165376258Y-98148570D01*
X165366551Y-98142834D01*
X165357034Y-98137845D01*
X165347732Y-98133637D01*
X165338672Y-98130242D01*
X165331849Y-98127546D01*
X165325925Y-98124709D01*
X165323298Y-98123221D01*
X165320891Y-98121677D01*
X165318703Y-98120069D01*
X165316734Y-98118391D01*
X165314982Y-98116635D01*
X165313446Y-98114795D01*
X165312124Y-98112863D01*
X165311015Y-98110833D01*
X165310119Y-98108696D01*
X165309432Y-98106446D01*
X165308956Y-98104076D01*
X165308687Y-98101579D01*
X165308624Y-98098947D01*
X165308768Y-98096175D01*
X165309115Y-98093253D01*
X165309665Y-98090176D01*
X165311368Y-98083526D01*
X165313868Y-98076168D01*
X165317153Y-98068045D01*
X165321212Y-98059101D01*
X165326037Y-98049278D01*
X165331616Y-98038520D01*
X165342615Y-98013326D01*
X165351805Y-97985631D01*
X165359196Y-97955827D01*
X165364800Y-97924308D01*
X165368626Y-97891466D01*
X165370684Y-97857694D01*
X165370986Y-97823384D01*
X165369541Y-97788930D01*
X165366359Y-97754723D01*
X165361452Y-97721158D01*
X165354829Y-97688626D01*
X165346500Y-97657520D01*
X165336477Y-97628233D01*
X165324768Y-97601158D01*
X165311386Y-97576688D01*
X165304070Y-97565552D01*
X165296340Y-97555214D01*
X165275454Y-97531772D01*
X165252456Y-97511710D01*
X165227297Y-97495016D01*
X165199932Y-97481682D01*
X165170314Y-97471697D01*
X165138396Y-97465049D01*
X165104132Y-97461730D01*
X165067475Y-97461728D01*
X165028379Y-97465034D01*
X164986798Y-97471636D01*
X164942684Y-97481525D01*
X164895992Y-97494691D01*
X164846674Y-97511122D01*
X164794685Y-97530809D01*
X164739978Y-97553741D01*
X164682506Y-97579909D01*
X164622050Y-97609472D01*
X164568777Y-97636332D01*
X164522346Y-97661012D01*
X164482415Y-97684033D01*
X164464781Y-97695085D01*
X164448645Y-97705917D01*
X164433963Y-97716596D01*
X164420693Y-97727187D01*
X164408793Y-97737754D01*
X164398219Y-97748363D01*
X164388929Y-97759079D01*
X164380881Y-97769968D01*
X164374032Y-97781094D01*
X164368340Y-97792524D01*
X164363760Y-97804321D01*
X164360252Y-97816552D01*
X164357772Y-97829282D01*
X164356278Y-97842576D01*
X164355727Y-97856499D01*
X158544182Y-97856499D01*
X158534968Y-97847965D01*
X158523369Y-97837997D01*
X158511672Y-97828707D01*
X158499924Y-97820129D01*
X158488170Y-97812301D01*
X158476458Y-97805259D01*
X158464833Y-97799038D01*
X158453343Y-97793674D01*
X158442033Y-97789205D01*
X158430951Y-97785666D01*
X158420143Y-97783094D01*
X158409656Y-97781524D01*
X158404546Y-97781126D01*
X158399535Y-97780992D01*
X158374131Y-97782572D01*
X158350759Y-97787510D01*
X158329299Y-97796108D01*
X158309631Y-97808663D01*
X158291639Y-97825477D01*
X158275201Y-97846849D01*
X158260200Y-97873078D01*
X158246517Y-97904464D01*
X158234033Y-97941308D01*
X158222629Y-97983908D01*
X158212186Y-98032565D01*
X158202585Y-98087578D01*
X158193708Y-98149247D01*
X158185435Y-98217872D01*
X158170229Y-98377187D01*
X158162434Y-98466856D01*
X158153513Y-98552315D01*
X158143331Y-98634062D01*
X158131754Y-98712601D01*
X158118647Y-98788432D01*
X158103876Y-98862056D01*
X158087307Y-98933975D01*
X158068805Y-99004690D01*
X158048236Y-99074702D01*
X158025466Y-99144513D01*
X158000360Y-99214623D01*
X157972783Y-99285534D01*
X157942603Y-99357748D01*
X157909683Y-99431765D01*
X157873890Y-99508086D01*
X157835090Y-99587214D01*
X157804528Y-99649035D01*
X157777626Y-99705078D01*
X157754320Y-99755685D01*
X157743996Y-99779056D01*
X157734548Y-99801196D01*
X157725969Y-99822148D01*
X157718249Y-99841953D01*
X157711383Y-99860656D01*
X157705361Y-99878297D01*
X157700177Y-99894921D01*
X157695822Y-99910569D01*
X157692288Y-99925285D01*
X157689569Y-99939110D01*
X157687656Y-99952088D01*
X157686541Y-99964261D01*
X157686217Y-99975672D01*
X154291474Y-99975672D01*
X153976521Y-99889735D01*
X153524587Y-99773304D01*
X153118458Y-99676387D01*
X152753712Y-99597908D01*
X152425925Y-99536792D01*
X152130674Y-99491964D01*
X151963421Y-99474119D01*
X151782857Y-99460325D01*
X151594520Y-99450664D01*
X151403951Y-99445221D01*
X151216690Y-99444077D01*
X151038275Y-99447316D01*
X150874247Y-99455019D01*
X150730146Y-99467270D01*
X150536118Y-99491964D01*
X150497313Y-99650714D01*
X150470193Y-99782310D01*
X150442412Y-99954048D01*
X150414961Y-100156792D01*
X150388833Y-100381405D01*
X150365021Y-100618752D01*
X150344516Y-100859695D01*
X150328310Y-101095098D01*
X150317396Y-101315825D01*
X150296229Y-101873214D01*
X150035174Y-101873214D01*
X149777646Y-101873214D01*
X149777646Y-101756797D01*
X149781790Y-101625539D01*
X149792605Y-101475347D01*
X149832492Y-101127089D01*
X149893794Y-100729883D01*
X149972997Y-100301589D01*
X150066586Y-99860066D01*
X150171048Y-99423173D01*
X150282869Y-99008769D01*
X150398535Y-98634714D01*
X150499800Y-98353046D01*
X152286053Y-98353046D01*
X152286555Y-98375742D01*
X152288101Y-98397030D01*
X152290690Y-98416923D01*
X152294323Y-98435434D01*
X152299002Y-98452576D01*
X152304727Y-98468364D01*
X152311498Y-98482812D01*
X152319316Y-98495931D01*
X152328182Y-98507737D01*
X152338096Y-98518243D01*
X152349059Y-98527461D01*
X152361072Y-98535407D01*
X152374135Y-98542093D01*
X152388250Y-98547533D01*
X152403415Y-98551740D01*
X152419634Y-98554729D01*
X152436905Y-98556512D01*
X152455229Y-98557103D01*
X152486238Y-98555450D01*
X152517096Y-98550489D01*
X152547820Y-98542220D01*
X152578426Y-98530645D01*
X152608928Y-98515762D01*
X152639342Y-98497572D01*
X152669684Y-98476075D01*
X152699969Y-98451270D01*
X152730212Y-98423158D01*
X152760430Y-98391739D01*
X152790638Y-98357012D01*
X152820850Y-98318978D01*
X152851083Y-98277637D01*
X152881353Y-98232989D01*
X152911674Y-98185033D01*
X152942063Y-98133770D01*
X153000601Y-98028984D01*
X153050541Y-97938419D01*
X153070427Y-97901674D01*
X153085930Y-97872329D01*
X153096306Y-97851665D01*
X153099340Y-97844989D01*
X153100813Y-97840964D01*
X153103314Y-97839259D01*
X153108708Y-97838728D01*
X153127429Y-97840930D01*
X153155484Y-97847049D01*
X153191377Y-97856564D01*
X153280709Y-97883691D01*
X153383476Y-97918135D01*
X153487731Y-97955721D01*
X153581527Y-97992273D01*
X153620770Y-98008857D01*
X153652917Y-98023617D01*
X153676475Y-98036030D01*
X153689951Y-98045576D01*
X153690866Y-98048726D01*
X153690985Y-98055401D01*
X153688959Y-98078538D01*
X153684122Y-98113416D01*
X153676722Y-98158464D01*
X153667007Y-98212111D01*
X153655225Y-98272786D01*
X153641624Y-98338918D01*
X153626451Y-98408937D01*
X153612360Y-98478060D01*
X153600537Y-98541400D01*
X153595488Y-98570981D01*
X153591019Y-98599212D01*
X153587136Y-98626123D01*
X153583842Y-98651747D01*
X153581143Y-98676115D01*
X153579043Y-98699259D01*
X153577545Y-98721211D01*
X153576656Y-98742001D01*
X153576379Y-98761663D01*
X153576719Y-98780227D01*
X153577680Y-98797726D01*
X153579267Y-98814190D01*
X153581485Y-98829652D01*
X153584338Y-98844143D01*
X153587830Y-98857694D01*
X153591966Y-98870338D01*
X153596751Y-98882106D01*
X153602188Y-98893030D01*
X153608284Y-98903141D01*
X153615041Y-98912472D01*
X153622465Y-98921053D01*
X153630560Y-98928916D01*
X153639331Y-98936093D01*
X153648782Y-98942616D01*
X153658918Y-98948517D01*
X153669743Y-98953826D01*
X153681262Y-98958576D01*
X153693479Y-98962798D01*
X153702000Y-98965084D01*
X153711007Y-98966665D01*
X153720467Y-98967555D01*
X153730348Y-98967772D01*
X153740620Y-98967333D01*
X153751251Y-98966255D01*
X153762208Y-98964554D01*
X153773460Y-98962246D01*
X153796724Y-98955882D01*
X153807003Y-98952214D01*
X154469590Y-98952214D01*
X154470092Y-98971499D01*
X154471577Y-98989662D01*
X154474017Y-99006699D01*
X154477383Y-99022604D01*
X154481645Y-99037373D01*
X154486775Y-99050999D01*
X154492743Y-99063478D01*
X154499521Y-99074804D01*
X154507079Y-99084974D01*
X154515388Y-99093980D01*
X154524420Y-99101818D01*
X154534144Y-99108484D01*
X154544533Y-99113971D01*
X154555557Y-99118275D01*
X154567186Y-99121390D01*
X154579392Y-99123311D01*
X154592146Y-99124034D01*
X154605419Y-99123553D01*
X154619182Y-99121862D01*
X154633405Y-99118957D01*
X154648059Y-99114832D01*
X154663116Y-99109483D01*
X154678546Y-99102904D01*
X154694321Y-99095089D01*
X154710410Y-99086035D01*
X154726786Y-99075735D01*
X154743419Y-99064184D01*
X154760280Y-99051378D01*
X154777340Y-99037311D01*
X154794570Y-99021977D01*
X154811941Y-99005373D01*
X154829423Y-98987492D01*
X154842681Y-98973952D01*
X154855944Y-98959869D01*
X154869134Y-98945363D01*
X154882175Y-98930552D01*
X154907496Y-98900490D01*
X154931288Y-98870634D01*
X154952930Y-98841937D01*
X154971802Y-98815348D01*
X154987284Y-98791818D01*
X154993561Y-98781497D01*
X154998757Y-98772298D01*
X155005835Y-98758602D01*
X155012716Y-98746570D01*
X155019701Y-98736129D01*
X155027089Y-98727208D01*
X155035180Y-98719734D01*
X155039583Y-98716517D01*
X155044273Y-98713635D01*
X155049290Y-98711078D01*
X155054669Y-98708837D01*
X155066667Y-98705270D01*
X155080566Y-98702860D01*
X155096666Y-98701535D01*
X155115268Y-98701224D01*
X155136671Y-98701852D01*
X155161174Y-98703349D01*
X155189078Y-98705642D01*
X155256284Y-98712326D01*
X155299121Y-98716591D01*
X155339683Y-98721310D01*
X155377021Y-98726278D01*
X155410184Y-98731287D01*
X155438220Y-98736131D01*
X155460179Y-98740603D01*
X155468582Y-98742635D01*
X155475110Y-98744496D01*
X155479643Y-98746161D01*
X155481124Y-98746911D01*
X155482062Y-98747603D01*
X155482942Y-98748582D01*
X155483599Y-98750186D01*
X155484267Y-98755203D01*
X155484109Y-98762525D01*
X155483165Y-98772022D01*
X155479086Y-98797027D01*
X155472361Y-98829183D01*
X155463321Y-98867458D01*
X155452297Y-98910818D01*
X155425618Y-99008659D01*
X155410650Y-99059263D01*
X155397485Y-99105418D01*
X155386109Y-99147387D01*
X155376505Y-99185433D01*
X155368657Y-99219822D01*
X155362552Y-99250815D01*
X155360147Y-99265120D01*
X155358172Y-99278676D01*
X155356625Y-99291515D01*
X155355503Y-99303669D01*
X155354805Y-99315173D01*
X155354529Y-99326058D01*
X155354673Y-99336358D01*
X155355234Y-99346106D01*
X155356212Y-99355334D01*
X155357604Y-99364076D01*
X155359408Y-99372365D01*
X155361622Y-99380233D01*
X155364244Y-99387713D01*
X155367272Y-99394839D01*
X155370705Y-99401643D01*
X155374541Y-99408159D01*
X155378777Y-99414419D01*
X155383411Y-99420455D01*
X155388442Y-99426302D01*
X155393868Y-99431992D01*
X155400646Y-99438328D01*
X155407744Y-99444108D01*
X155415153Y-99449333D01*
X155422862Y-99454006D01*
X155430859Y-99458129D01*
X155439136Y-99461703D01*
X155447682Y-99464731D01*
X155456486Y-99467215D01*
X155465538Y-99469155D01*
X155474827Y-99470555D01*
X155484345Y-99471417D01*
X155494079Y-99471741D01*
X155504019Y-99471531D01*
X155514157Y-99470788D01*
X155534979Y-99467711D01*
X155556463Y-99462525D01*
X155578525Y-99455246D01*
X155601084Y-99445890D01*
X155624055Y-99434473D01*
X155647358Y-99421008D01*
X155670909Y-99405513D01*
X155694625Y-99388003D01*
X155718424Y-99368492D01*
X155737350Y-99351010D01*
X155754576Y-99333972D01*
X155770304Y-99316914D01*
X155784735Y-99299370D01*
X155798070Y-99280875D01*
X155810511Y-99260964D01*
X155822260Y-99239172D01*
X155833517Y-99215034D01*
X155844486Y-99188084D01*
X155855366Y-99157859D01*
X155866360Y-99123892D01*
X155877670Y-99085719D01*
X155898554Y-99007887D01*
X156374039Y-99007887D01*
X156381313Y-99151987D01*
X156401062Y-99288635D01*
X156415805Y-99353476D01*
X156433895Y-99415629D01*
X156455409Y-99474819D01*
X156480423Y-99530770D01*
X156495224Y-99558433D01*
X156511145Y-99585183D01*
X156528128Y-99610995D01*
X156546114Y-99635845D01*
X156565047Y-99659708D01*
X156584866Y-99682559D01*
X156605516Y-99704374D01*
X156626936Y-99725128D01*
X156649070Y-99744797D01*
X156671858Y-99763357D01*
X156695244Y-99780782D01*
X156719168Y-99797048D01*
X156743573Y-99812131D01*
X156768400Y-99826006D01*
X156793592Y-99838648D01*
X156819090Y-99850034D01*
X156844836Y-99860137D01*
X156870771Y-99868935D01*
X156896839Y-99876402D01*
X156922980Y-99882514D01*
X156949137Y-99887246D01*
X156975251Y-99890574D01*
X157001264Y-99892473D01*
X157027118Y-99892918D01*
X157052756Y-99891886D01*
X157078118Y-99889351D01*
X157103147Y-99885289D01*
X157127784Y-99879675D01*
X157151972Y-99872485D01*
X157175652Y-99863695D01*
X157198766Y-99853279D01*
X157221256Y-99841214D01*
X157236096Y-99831561D01*
X157250182Y-99821166D01*
X157263505Y-99810093D01*
X157276054Y-99798405D01*
X157287821Y-99786167D01*
X157298794Y-99773443D01*
X157308966Y-99760296D01*
X157318325Y-99746791D01*
X157326863Y-99732991D01*
X157334570Y-99718961D01*
X157341436Y-99704764D01*
X157347450Y-99690464D01*
X157352605Y-99676125D01*
X157356889Y-99661812D01*
X157360294Y-99647588D01*
X157362809Y-99633516D01*
X157364424Y-99619662D01*
X157365131Y-99606089D01*
X157364920Y-99592861D01*
X157363780Y-99580042D01*
X157361702Y-99567695D01*
X157358677Y-99555885D01*
X157354694Y-99544676D01*
X157349745Y-99534132D01*
X157343818Y-99524317D01*
X157336906Y-99515294D01*
X157328997Y-99507127D01*
X157320082Y-99499881D01*
X157310152Y-99493619D01*
X157299197Y-99488406D01*
X157287208Y-99484305D01*
X157274173Y-99481381D01*
X157223964Y-99472331D01*
X157178923Y-99463556D01*
X157138678Y-99454832D01*
X157102856Y-99445938D01*
X157086487Y-99441357D01*
X157071085Y-99436651D01*
X157056603Y-99431790D01*
X157042994Y-99426749D01*
X157030211Y-99421497D01*
X157018210Y-99416009D01*
X157006942Y-99410256D01*
X156996361Y-99404211D01*
X156986421Y-99397845D01*
X156977075Y-99391131D01*
X156968277Y-99384040D01*
X156959981Y-99376547D01*
X156952139Y-99368621D01*
X156944705Y-99360237D01*
X156937633Y-99351365D01*
X156930876Y-99341979D01*
X156924388Y-99332050D01*
X156918123Y-99321550D01*
X156912033Y-99310452D01*
X156906072Y-99298729D01*
X156894351Y-99273293D01*
X156882590Y-99245020D01*
X156869817Y-99206453D01*
X156859287Y-99166175D01*
X156851011Y-99124213D01*
X156844997Y-99080592D01*
X156841258Y-99035338D01*
X156839802Y-98988477D01*
X156840641Y-98940035D01*
X156843785Y-98890037D01*
X156849244Y-98838510D01*
X156857028Y-98785479D01*
X156867148Y-98730969D01*
X156879614Y-98675008D01*
X156894436Y-98617621D01*
X156911626Y-98558833D01*
X156931192Y-98498670D01*
X156953146Y-98437159D01*
X156986186Y-98349260D01*
X157002691Y-98308334D01*
X157019195Y-98269417D01*
X157035704Y-98232502D01*
X157052225Y-98197584D01*
X157068764Y-98164657D01*
X157085327Y-98133715D01*
X157101921Y-98104752D01*
X157118553Y-98077762D01*
X157135229Y-98052740D01*
X157151955Y-98029680D01*
X157168738Y-98008575D01*
X157185584Y-97989421D01*
X157202501Y-97972211D01*
X157219493Y-97956940D01*
X157236568Y-97943601D01*
X157253732Y-97932190D01*
X157270992Y-97922699D01*
X157288353Y-97915123D01*
X157305824Y-97909457D01*
X157323409Y-97905695D01*
X157341116Y-97903831D01*
X157358950Y-97903858D01*
X157376919Y-97905772D01*
X157395029Y-97909566D01*
X157413286Y-97915234D01*
X157431697Y-97922772D01*
X157450268Y-97932172D01*
X157469006Y-97943429D01*
X157487917Y-97956538D01*
X157507007Y-97971492D01*
X157529394Y-97990182D01*
X157550339Y-98006577D01*
X157560312Y-98013921D01*
X157569972Y-98020699D01*
X157579336Y-98026913D01*
X157588421Y-98032567D01*
X157597243Y-98037663D01*
X157605816Y-98042203D01*
X157614159Y-98046190D01*
X157622287Y-98049627D01*
X157630215Y-98052516D01*
X157637961Y-98054860D01*
X157645540Y-98056661D01*
X157652969Y-98057923D01*
X157660263Y-98058647D01*
X157667439Y-98058836D01*
X157674513Y-98058493D01*
X157681501Y-98057620D01*
X157688419Y-98056220D01*
X157695284Y-98054295D01*
X157702111Y-98051849D01*
X157708917Y-98048883D01*
X157715718Y-98045400D01*
X157722529Y-98041404D01*
X157729368Y-98036895D01*
X157736251Y-98031878D01*
X157743192Y-98026354D01*
X157750209Y-98020326D01*
X157757318Y-98013798D01*
X157764535Y-98006770D01*
X157775484Y-97994979D01*
X157785193Y-97982147D01*
X157793686Y-97968347D01*
X157800984Y-97953654D01*
X157807109Y-97938141D01*
X157812082Y-97921884D01*
X157815927Y-97904956D01*
X157818664Y-97887432D01*
X157820316Y-97869386D01*
X157820905Y-97850892D01*
X157820453Y-97832025D01*
X157818981Y-97812859D01*
X157816512Y-97793468D01*
X157813067Y-97773927D01*
X157808669Y-97754310D01*
X157803340Y-97734690D01*
X157797101Y-97715143D01*
X157789975Y-97695742D01*
X157781983Y-97676563D01*
X157773147Y-97657678D01*
X157763490Y-97639163D01*
X157753033Y-97621092D01*
X157741798Y-97603539D01*
X157729808Y-97586578D01*
X157717084Y-97570284D01*
X157703647Y-97554731D01*
X157689521Y-97539993D01*
X157674727Y-97526145D01*
X157659288Y-97513260D01*
X157643224Y-97501413D01*
X157626558Y-97490679D01*
X157609312Y-97481131D01*
X157581383Y-97468229D01*
X157550752Y-97457291D01*
X157517775Y-97448296D01*
X157482808Y-97441223D01*
X157446208Y-97436052D01*
X157408332Y-97432762D01*
X157369536Y-97431332D01*
X157330177Y-97431742D01*
X157290611Y-97433971D01*
X157251194Y-97437998D01*
X157212285Y-97443803D01*
X157174238Y-97451365D01*
X157137411Y-97460664D01*
X157102160Y-97471678D01*
X157068841Y-97484387D01*
X157037812Y-97498770D01*
X156989776Y-97527167D01*
X156942953Y-97560580D01*
X156897420Y-97598735D01*
X156853252Y-97641356D01*
X156810525Y-97688167D01*
X156769317Y-97738895D01*
X156691759Y-97850996D01*
X156621188Y-97975459D01*
X156558214Y-98110081D01*
X156503445Y-98252662D01*
X156457493Y-98400999D01*
X156420966Y-98552891D01*
X156394475Y-98706138D01*
X156378629Y-98858537D01*
X156374039Y-99007887D01*
X155898554Y-99007887D01*
X155902040Y-98994892D01*
X155930090Y-98881659D01*
X155966839Y-98716552D01*
X155999020Y-98554974D01*
X156026612Y-98397479D01*
X156049594Y-98244619D01*
X156067946Y-98096948D01*
X156081647Y-97955018D01*
X156090676Y-97819382D01*
X156095014Y-97690593D01*
X156094638Y-97569204D01*
X156089529Y-97455768D01*
X156079666Y-97350838D01*
X156065027Y-97254967D01*
X156045593Y-97168708D01*
X156021343Y-97092614D01*
X156007406Y-97058551D01*
X155992256Y-97027237D01*
X155975893Y-96998740D01*
X155958312Y-96973131D01*
X155951299Y-96963920D01*
X155943546Y-96954844D01*
X155935143Y-96945954D01*
X155926176Y-96937302D01*
X155916734Y-96928939D01*
X155906904Y-96920917D01*
X155896775Y-96913288D01*
X155886434Y-96906103D01*
X155875968Y-96899414D01*
X155865467Y-96893274D01*
X155855017Y-96887732D01*
X155844707Y-96882842D01*
X155834624Y-96878654D01*
X155824856Y-96875221D01*
X155815492Y-96872594D01*
X155806618Y-96870825D01*
X155795212Y-96869902D01*
X155783502Y-96869766D01*
X155771515Y-96870397D01*
X155759276Y-96871776D01*
X155746812Y-96873884D01*
X155734150Y-96876701D01*
X155721316Y-96880208D01*
X155708336Y-96884385D01*
X155682048Y-96894674D01*
X155655495Y-96907412D01*
X155628891Y-96922445D01*
X155602448Y-96939617D01*
X155576376Y-96958774D01*
X155550888Y-96979759D01*
X155526197Y-97002420D01*
X155502512Y-97026599D01*
X155480048Y-97052143D01*
X155459014Y-97078895D01*
X155439625Y-97106702D01*
X155422090Y-97135409D01*
X155255568Y-97437316D01*
X155088715Y-97744226D01*
X154781799Y-98320301D01*
X154655625Y-98563091D01*
X154556903Y-98758131D01*
X154492576Y-98892235D01*
X154475481Y-98932314D01*
X154469590Y-98952214D01*
X153807003Y-98952214D01*
X153820789Y-98947295D01*
X153845402Y-98936620D01*
X153870309Y-98923992D01*
X153895257Y-98909545D01*
X153919994Y-98893413D01*
X153944266Y-98875731D01*
X153967819Y-98856634D01*
X153990401Y-98836254D01*
X154011758Y-98814727D01*
X154031637Y-98792188D01*
X154049785Y-98768770D01*
X154064551Y-98743369D01*
X154083416Y-98702486D01*
X154131640Y-98579813D01*
X154190861Y-98411831D01*
X154257483Y-98209617D01*
X154327907Y-97984253D01*
X154398539Y-97746817D01*
X154465780Y-97508389D01*
X154526035Y-97280048D01*
X154545174Y-97205904D01*
X154561574Y-97138013D01*
X154575225Y-97076014D01*
X154586117Y-97019543D01*
X154590525Y-96993269D01*
X154594239Y-96968241D01*
X154597258Y-96944414D01*
X154599580Y-96921744D01*
X154601205Y-96900185D01*
X154602131Y-96879691D01*
X154602357Y-96860218D01*
X154601882Y-96841721D01*
X154600703Y-96824154D01*
X154598821Y-96807472D01*
X154596233Y-96791629D01*
X154592938Y-96776581D01*
X154588936Y-96762283D01*
X154584224Y-96748688D01*
X154578801Y-96735752D01*
X154572667Y-96723430D01*
X154565820Y-96711677D01*
X154558258Y-96700446D01*
X154549981Y-96689694D01*
X154540986Y-96679375D01*
X154531273Y-96669443D01*
X154520841Y-96659853D01*
X154509688Y-96650560D01*
X154497812Y-96641520D01*
X154481481Y-96629114D01*
X154466710Y-96618341D01*
X154453241Y-96609181D01*
X154440817Y-96601612D01*
X154434915Y-96598418D01*
X154429177Y-96595614D01*
X154423572Y-96593198D01*
X154418065Y-96591166D01*
X154412626Y-96589517D01*
X154407222Y-96588248D01*
X154401820Y-96587357D01*
X154396389Y-96586839D01*
X154390895Y-96586694D01*
X154385307Y-96586919D01*
X154379593Y-96587510D01*
X154373720Y-96588465D01*
X154367655Y-96589783D01*
X154361367Y-96591459D01*
X154347992Y-96595879D01*
X154333335Y-96601705D01*
X154317138Y-96608916D01*
X154299142Y-96617490D01*
X154279090Y-96627409D01*
X154260489Y-96636352D01*
X154242896Y-96646205D01*
X154226078Y-96657298D01*
X154209802Y-96669963D01*
X154193837Y-96684528D01*
X154177949Y-96701327D01*
X154161906Y-96720688D01*
X154145476Y-96742943D01*
X154128425Y-96768423D01*
X154110522Y-96797459D01*
X154091533Y-96830380D01*
X154071227Y-96867518D01*
X154025731Y-96955768D01*
X153972173Y-97064853D01*
X153901232Y-97212854D01*
X153841205Y-97336051D01*
X153781674Y-97456436D01*
X153779547Y-97457282D01*
X153775243Y-97457207D01*
X153760659Y-97454500D01*
X153739025Y-97448724D01*
X153711449Y-97440286D01*
X153642891Y-97417059D01*
X153563833Y-97388086D01*
X153483122Y-97356632D01*
X153409603Y-97325964D01*
X153352125Y-97299347D01*
X153332166Y-97288579D01*
X153319535Y-97280048D01*
X153314533Y-97275703D01*
X153310116Y-97270587D01*
X153306287Y-97264677D01*
X153303053Y-97257944D01*
X153300419Y-97250364D01*
X153298389Y-97241910D01*
X153296968Y-97232558D01*
X153296163Y-97222280D01*
X153295978Y-97211052D01*
X153296418Y-97198847D01*
X153297489Y-97185639D01*
X153299195Y-97171403D01*
X153301542Y-97156113D01*
X153304535Y-97139743D01*
X153308179Y-97122267D01*
X153312479Y-97103659D01*
X153317259Y-97079035D01*
X153321032Y-97053514D01*
X153325667Y-97000154D01*
X153326602Y-96944335D01*
X153324055Y-96886811D01*
X153318241Y-96828335D01*
X153309379Y-96769664D01*
X153297684Y-96711550D01*
X153283375Y-96654749D01*
X153266668Y-96600015D01*
X153247780Y-96548103D01*
X153226929Y-96499766D01*
X153204331Y-96455760D01*
X153192444Y-96435617D01*
X153180203Y-96416839D01*
X153167633Y-96399521D01*
X153154763Y-96383758D01*
X153141618Y-96369642D01*
X153128227Y-96357270D01*
X153114616Y-96346735D01*
X153100813Y-96338131D01*
X153081536Y-96328561D01*
X153062730Y-96320362D01*
X153044387Y-96313538D01*
X153026502Y-96308097D01*
X153009069Y-96304042D01*
X152992083Y-96301381D01*
X152975537Y-96300119D01*
X152959426Y-96300262D01*
X152943744Y-96301816D01*
X152928485Y-96304787D01*
X152913643Y-96309180D01*
X152899212Y-96315001D01*
X152885188Y-96322256D01*
X152871563Y-96330951D01*
X152858332Y-96341091D01*
X152845490Y-96352683D01*
X152833029Y-96365732D01*
X152820946Y-96380245D01*
X152809233Y-96396226D01*
X152797885Y-96413682D01*
X152786897Y-96432619D01*
X152776261Y-96453041D01*
X152756027Y-96498369D01*
X152737137Y-96549712D01*
X152719544Y-96607117D01*
X152703201Y-96670630D01*
X152688062Y-96740298D01*
X152655933Y-96890401D01*
X152622854Y-97036907D01*
X152588534Y-97180519D01*
X152552684Y-97321940D01*
X152515015Y-97461873D01*
X152475238Y-97601020D01*
X152433063Y-97740085D01*
X152388201Y-97879770D01*
X152374166Y-97923614D01*
X152361165Y-97965860D01*
X152349199Y-98006521D01*
X152338268Y-98045610D01*
X152328373Y-98083141D01*
X152319516Y-98119127D01*
X152311695Y-98153583D01*
X152304913Y-98186521D01*
X152299169Y-98217956D01*
X152294465Y-98247900D01*
X152290800Y-98276367D01*
X152288176Y-98303372D01*
X152286594Y-98328927D01*
X152286053Y-98353046D01*
X150499800Y-98353046D01*
X150525039Y-98282846D01*
X150678993Y-97888810D01*
X150851468Y-97472615D01*
X151033535Y-97054270D01*
X151216263Y-96653784D01*
X151390722Y-96291167D01*
X151547984Y-95986428D01*
X151617375Y-95862015D01*
X151679118Y-95759575D01*
X151689007Y-95744383D01*
X151698826Y-95729898D01*
X151708564Y-95716123D01*
X151718213Y-95703062D01*
X151727764Y-95690720D01*
X151737208Y-95679100D01*
X151746535Y-95668206D01*
X151755737Y-95658042D01*
X151764805Y-95648611D01*
X151773729Y-95639919D01*
X151782501Y-95631968D01*
X151791111Y-95624762D01*
X151799551Y-95618306D01*
X151807811Y-95612603D01*
X151815883Y-95607657D01*
X151823757Y-95603471D01*
X151831424Y-95600051D01*
X151838876Y-95597399D01*
X151846103Y-95595520D01*
X151853095Y-95594418D01*
X151859845Y-95594095D01*
X151866344Y-95594557D01*
X151872581Y-95595807D01*
X151878548Y-95597849D01*
X151884236Y-95600687D01*
X151889636Y-95604324D01*
X151894739Y-95608765D01*
X151899535Y-95614013D01*
X151904017Y-95620073D01*
X151908174Y-95626948D01*
X151911998Y-95634642D01*
X151915479Y-95643159D01*
X151918931Y-95650557D01*
X151922755Y-95656870D01*
X151927075Y-95662088D01*
X151929460Y-95664283D01*
X151932016Y-95666200D01*
X151934757Y-95667837D01*
X151937700Y-95669195D01*
X151940860Y-95670271D01*
X151944253Y-95671064D01*
X151947893Y-95671573D01*
X151951797Y-95671796D01*
X151960458Y-95671381D01*
X151970360Y-95669808D01*
X151981625Y-95667068D01*
X151994379Y-95663149D01*
X152008745Y-95658042D01*
X152024847Y-95651735D01*
X152042810Y-95644220D01*
X152084812Y-95625520D01*
X152153714Y-95598490D01*
X152237168Y-95570674D01*
X152332859Y-95542610D01*
X152438472Y-95514836D01*
X152551692Y-95487888D01*
X152670203Y-95462305D01*
X152791691Y-95438624D01*
X152913840Y-95417381D01*
X152983156Y-95408522D01*
X153066864Y-95401740D01*
X153270201Y-95394120D01*
X153509339Y-95393941D01*
X153769767Y-95400624D01*
G37*
G36*
X155707857Y-97499487D02*
G01*
X155711214Y-97501610D01*
X155717355Y-97509918D01*
X155722722Y-97523373D01*
X155727298Y-97541655D01*
X155731068Y-97564442D01*
X155734016Y-97591415D01*
X155737385Y-97656638D01*
X155737282Y-97734759D01*
X155733582Y-97823215D01*
X155726161Y-97919444D01*
X155714896Y-98020881D01*
X155693729Y-98211381D01*
X155531451Y-98186687D01*
X155429587Y-98172789D01*
X155389382Y-98166386D01*
X155356165Y-98159512D01*
X155342137Y-98155703D01*
X155329810Y-98151542D01*
X155319167Y-98146951D01*
X155310193Y-98141852D01*
X155302874Y-98136166D01*
X155297192Y-98129816D01*
X155293133Y-98122722D01*
X155290680Y-98114808D01*
X155289820Y-98105995D01*
X155290536Y-98096204D01*
X155292812Y-98085357D01*
X155296634Y-98073377D01*
X155301985Y-98060186D01*
X155308850Y-98045704D01*
X155327061Y-98012558D01*
X155351142Y-97973314D01*
X155380969Y-97927347D01*
X155457368Y-97812742D01*
X155479132Y-97780730D01*
X155500680Y-97749621D01*
X155521875Y-97719577D01*
X155542586Y-97690758D01*
X155562676Y-97663324D01*
X155582011Y-97637435D01*
X155600458Y-97613251D01*
X155617882Y-97590933D01*
X155634148Y-97570641D01*
X155649122Y-97552534D01*
X155662670Y-97536774D01*
X155674657Y-97523520D01*
X155684949Y-97512932D01*
X155693412Y-97505171D01*
X155696915Y-97502401D01*
X155699911Y-97500397D01*
X155702382Y-97499180D01*
X155704312Y-97498770D01*
X155707857Y-97499487D01*
G37*
G36*
X164962467Y-97786835D02*
G01*
X164976041Y-97788263D01*
X164989166Y-97790468D01*
X165001815Y-97793430D01*
X165013958Y-97797129D01*
X165025566Y-97801547D01*
X165036610Y-97806663D01*
X165047062Y-97812460D01*
X165056891Y-97818916D01*
X165066069Y-97826013D01*
X165074567Y-97833731D01*
X165082355Y-97842052D01*
X165089406Y-97850955D01*
X165095689Y-97860422D01*
X165101175Y-97870432D01*
X165105836Y-97880967D01*
X165109643Y-97892007D01*
X165112565Y-97903533D01*
X165114575Y-97915525D01*
X165115643Y-97927964D01*
X165115741Y-97940831D01*
X165114838Y-97954106D01*
X165112906Y-97967770D01*
X165109917Y-97981803D01*
X165105840Y-97996187D01*
X165103157Y-98002852D01*
X165099135Y-98010237D01*
X165093864Y-98018274D01*
X165087429Y-98026896D01*
X165071423Y-98045633D01*
X165051820Y-98065915D01*
X165029324Y-98087210D01*
X165004636Y-98108986D01*
X164978460Y-98130710D01*
X164951499Y-98151850D01*
X164924455Y-98171874D01*
X164898031Y-98190249D01*
X164872930Y-98206443D01*
X164849855Y-98219925D01*
X164829508Y-98230161D01*
X164820577Y-98233896D01*
X164812593Y-98236620D01*
X164805641Y-98238266D01*
X164799811Y-98238769D01*
X164795191Y-98238061D01*
X164791867Y-98236076D01*
X164790180Y-98233860D01*
X164787795Y-98229930D01*
X164781119Y-98217334D01*
X164772210Y-98199117D01*
X164761440Y-98176103D01*
X164735809Y-98118997D01*
X164707201Y-98052631D01*
X164633118Y-97883298D01*
X164710729Y-97855075D01*
X164727334Y-97849336D01*
X164745014Y-97842894D01*
X164781284Y-97829058D01*
X164841255Y-97805687D01*
X164857363Y-97800206D01*
X164873256Y-97795656D01*
X164888904Y-97792019D01*
X164904280Y-97789274D01*
X164919353Y-97787403D01*
X164934094Y-97786386D01*
X164948476Y-97786203D01*
X164962467Y-97786835D01*
G37*
G36*
X165205106Y-98419935D02*
G01*
X165228926Y-98421849D01*
X165251174Y-98425272D01*
X165261644Y-98427552D01*
X165271645Y-98430214D01*
X165281149Y-98433257D01*
X165290131Y-98436685D01*
X165298565Y-98440498D01*
X165306426Y-98444697D01*
X165313687Y-98449283D01*
X165320323Y-98454259D01*
X165326308Y-98459624D01*
X165331616Y-98465381D01*
X165336120Y-98471236D01*
X165340360Y-98478155D01*
X165344321Y-98486046D01*
X165347988Y-98494816D01*
X165351344Y-98504371D01*
X165354375Y-98514618D01*
X165357065Y-98525465D01*
X165359398Y-98536819D01*
X165361359Y-98548585D01*
X165362933Y-98560672D01*
X165364104Y-98572987D01*
X165364856Y-98585436D01*
X165365174Y-98597926D01*
X165365042Y-98610364D01*
X165364446Y-98622658D01*
X165363368Y-98634714D01*
X165361189Y-98652479D01*
X165358503Y-98668848D01*
X165355136Y-98683998D01*
X165350910Y-98698104D01*
X165345651Y-98711342D01*
X165339183Y-98723887D01*
X165335440Y-98729955D01*
X165331330Y-98735916D01*
X165321916Y-98747603D01*
X165310766Y-98759125D01*
X165297704Y-98770658D01*
X165282554Y-98782376D01*
X165265141Y-98794456D01*
X165245288Y-98807074D01*
X165222821Y-98820405D01*
X165197563Y-98834624D01*
X165169339Y-98849908D01*
X165150217Y-98860238D01*
X165131291Y-98870035D01*
X165112676Y-98879263D01*
X165094484Y-98887887D01*
X165076830Y-98895871D01*
X165059826Y-98903177D01*
X165043588Y-98909770D01*
X165028228Y-98915614D01*
X165013860Y-98920672D01*
X165000598Y-98924908D01*
X164988556Y-98928287D01*
X164977847Y-98930772D01*
X164968585Y-98932327D01*
X164960883Y-98932915D01*
X164957653Y-98932835D01*
X164954856Y-98932500D01*
X164952506Y-98931906D01*
X164950617Y-98931047D01*
X164947232Y-98928375D01*
X164943713Y-98924385D01*
X164940091Y-98919165D01*
X164936396Y-98912802D01*
X164932660Y-98905386D01*
X164928913Y-98897003D01*
X164925187Y-98887742D01*
X164921513Y-98877690D01*
X164917922Y-98866935D01*
X164914444Y-98855565D01*
X164911111Y-98843669D01*
X164907953Y-98831333D01*
X164905003Y-98818645D01*
X164902290Y-98805694D01*
X164899845Y-98792568D01*
X164897701Y-98779353D01*
X164886621Y-98722192D01*
X164875211Y-98666023D01*
X164869692Y-98640275D01*
X164864462Y-98617130D01*
X164859646Y-98597376D01*
X164855367Y-98581798D01*
X164853220Y-98573399D01*
X164852526Y-98569341D01*
X164852087Y-98565371D01*
X164851907Y-98561485D01*
X164851987Y-98557675D01*
X164852331Y-98553938D01*
X164852941Y-98550268D01*
X164853820Y-98546660D01*
X164854971Y-98543109D01*
X164856395Y-98539610D01*
X164858096Y-98536157D01*
X164860075Y-98532746D01*
X164862337Y-98529370D01*
X164864882Y-98526026D01*
X164867715Y-98522707D01*
X164874250Y-98516127D01*
X164881964Y-98509588D01*
X164890876Y-98503050D01*
X164901009Y-98496470D01*
X164912381Y-98489807D01*
X164925014Y-98483020D01*
X164938929Y-98476068D01*
X164954146Y-98468909D01*
X164982802Y-98457707D01*
X165011748Y-98447921D01*
X165040776Y-98439562D01*
X165069680Y-98432639D01*
X165098254Y-98427163D01*
X165126290Y-98423144D01*
X165153582Y-98420593D01*
X165179923Y-98419520D01*
X165205106Y-98419935D01*
G37*
D11*
G36*
X151731531Y-103362422D02*
G01*
X151731531Y-106305060D01*
X151159820Y-106305060D01*
X151159820Y-104874773D01*
X149856296Y-104874773D01*
X149856296Y-106305060D01*
X149284584Y-106305060D01*
X149284584Y-103362422D01*
X149856296Y-103362422D01*
X149856296Y-104452722D01*
X151159820Y-104452722D01*
X151159820Y-103362422D01*
X151731531Y-103362422D01*
G37*
G36*
X154991807Y-106305060D02*
G01*
X154413867Y-106305060D01*
X154077728Y-105402338D01*
X153106496Y-105402338D01*
X152770357Y-106305060D01*
X152192418Y-106305060D01*
X152688980Y-104992010D01*
X153257988Y-104992010D01*
X153926236Y-104992010D01*
X153592112Y-103985974D01*
X153257988Y-104992010D01*
X152688980Y-104992010D01*
X153305249Y-103362422D01*
X153878975Y-103362422D01*
X154991807Y-106305060D01*
G37*
G36*
X157560570Y-106220613D02*
G01*
X157372879Y-106273358D01*
X157159951Y-106316050D01*
X156940470Y-106342936D01*
X156716284Y-106351954D01*
X156461087Y-106340923D01*
X156246774Y-106310227D01*
X156067636Y-106262928D01*
X155898275Y-106191292D01*
X155755614Y-106100624D01*
X155636242Y-105990902D01*
X155537878Y-105861561D01*
X155457782Y-105709274D01*
X155396456Y-105530565D01*
X155342565Y-105240092D01*
X155322817Y-104876788D01*
X155342289Y-104497026D01*
X155395540Y-104191321D01*
X155455702Y-104001389D01*
X155532824Y-103840300D01*
X155625983Y-103704240D01*
X155740334Y-103586367D01*
X155875079Y-103489460D01*
X156032831Y-103412797D01*
X156201695Y-103360824D01*
X156401191Y-103327443D01*
X156636416Y-103315527D01*
X156883346Y-103327800D01*
X157114888Y-103360590D01*
X157319869Y-103407851D01*
X157488946Y-103463172D01*
X157353757Y-103870752D01*
X157043080Y-103777512D01*
X156875360Y-103747740D01*
X156695767Y-103737579D01*
X156486655Y-103755240D01*
X156324823Y-103803341D01*
X156187691Y-103886076D01*
X156080092Y-104002460D01*
X156001999Y-104148106D01*
X155945819Y-104339149D01*
X155915807Y-104551090D01*
X155904787Y-104815239D01*
X155916975Y-105096480D01*
X155949850Y-105317158D01*
X156010976Y-105514413D01*
X156095296Y-105664105D01*
X156169048Y-105746910D01*
X156256284Y-105813663D01*
X156358712Y-105865239D01*
X156531896Y-105912505D01*
X156755301Y-105929902D01*
X156933330Y-105921749D01*
X157112873Y-105897113D01*
X157288341Y-105859101D01*
X157445898Y-105813215D01*
X157560570Y-106220613D01*
G37*
G36*
X159756741Y-103315527D02*
G01*
X160125486Y-103622907D01*
X159129525Y-104801684D01*
X160330467Y-106305060D01*
X159609096Y-106305060D01*
X158676699Y-105045682D01*
X158676699Y-106305060D01*
X158104987Y-106305060D01*
X158104987Y-103362422D01*
X158676699Y-103362422D01*
X158676699Y-104593222D01*
X159756741Y-103315527D01*
G37*
G36*
X162133081Y-103377765D02*
G01*
X162309201Y-103421040D01*
X162466917Y-103494092D01*
X162595148Y-103592315D01*
X162697184Y-103717031D01*
X162773384Y-103871485D01*
X162818780Y-104045400D01*
X162834933Y-104253236D01*
X162814991Y-104477919D01*
X162759096Y-104662832D01*
X162666324Y-104824437D01*
X162541842Y-104955374D01*
X162388358Y-105056452D01*
X162199474Y-105131778D01*
X161991690Y-105175785D01*
X161750678Y-105191312D01*
X161534523Y-105184168D01*
X161355188Y-105168781D01*
X161355188Y-106305060D01*
X160783477Y-106305060D01*
X160783477Y-104772375D01*
X161355188Y-104772375D01*
X161485247Y-104787579D01*
X161611277Y-104792708D01*
X161764271Y-104785666D01*
X161888981Y-104766330D01*
X162001638Y-104730093D01*
X162089932Y-104678769D01*
X162160545Y-104609031D01*
X162211748Y-104520133D01*
X162241684Y-104415514D01*
X162252780Y-104277966D01*
X162244423Y-104141316D01*
X162222006Y-104036715D01*
X162181243Y-103946148D01*
X162123637Y-103876980D01*
X162048364Y-103825423D01*
X161949431Y-103788503D01*
X161837172Y-103768494D01*
X161691327Y-103761026D01*
X161355188Y-103761026D01*
X161355188Y-104772375D01*
X160783477Y-104772375D01*
X160783477Y-103362422D01*
X161925068Y-103362422D01*
X162133081Y-103377765D01*
G37*
G36*
X165953426Y-106305060D02*
G01*
X165375486Y-106305060D01*
X165039347Y-105402338D01*
X164068115Y-105402338D01*
X163731976Y-106305060D01*
X163154037Y-106305060D01*
X163650599Y-104992010D01*
X164219607Y-104992010D01*
X164887855Y-104992010D01*
X164553731Y-103985974D01*
X164219607Y-104992010D01*
X163650599Y-104992010D01*
X164266868Y-103362422D01*
X164840594Y-103362422D01*
X165953426Y-106305060D01*
G37*
G36*
X167456087Y-103369103D02*
G01*
X167665629Y-103388067D01*
X167865192Y-103423713D01*
X168042801Y-103477094D01*
X168232400Y-103567178D01*
X168382971Y-103678594D01*
X168506186Y-103815580D01*
X168602240Y-103976448D01*
X168671551Y-104155676D01*
X168719110Y-104362047D01*
X168744889Y-104580526D01*
X168753914Y-104825497D01*
X168744620Y-105070558D01*
X168718011Y-105290047D01*
X168669131Y-105497433D01*
X168598026Y-105677844D01*
X168500657Y-105840013D01*
X168377841Y-105978629D01*
X168228690Y-106092292D01*
X168042801Y-106184342D01*
X167865139Y-106239630D01*
X167665629Y-106277399D01*
X167456037Y-106297857D01*
X167218848Y-106305060D01*
X166419624Y-106305060D01*
X166419624Y-105894732D01*
X166993351Y-105894732D01*
X167075416Y-105894732D01*
X167397954Y-105880963D01*
X167626612Y-105845456D01*
X167763921Y-105802300D01*
X167873779Y-105745070D01*
X167960736Y-105674730D01*
X168031040Y-105587750D01*
X168086569Y-105481080D01*
X168126699Y-105351047D01*
X168159290Y-105135234D01*
X168171762Y-104839969D01*
X168159582Y-104544320D01*
X168127615Y-104325960D01*
X168088748Y-104193067D01*
X168036161Y-104085034D01*
X167970811Y-103997881D01*
X167889357Y-103926014D01*
X167788719Y-103867998D01*
X167665446Y-103824224D01*
X167459883Y-103786991D01*
X167177815Y-103772750D01*
X166993351Y-103772750D01*
X166993351Y-105894732D01*
X166419624Y-105894732D01*
X166419624Y-103362422D01*
X167218848Y-103362422D01*
X167456087Y-103369103D01*
G37*
D12*
X179611700Y-74242981D02*
X179649795Y-74128695D01*
X179649795Y-74128695D02*
X179649795Y-73938219D01*
X179649795Y-73938219D02*
X179611700Y-73862028D01*
X179611700Y-73862028D02*
X179573604Y-73823933D01*
X179573604Y-73823933D02*
X179497414Y-73785838D01*
X179497414Y-73785838D02*
X179421223Y-73785838D01*
X179421223Y-73785838D02*
X179345033Y-73823933D01*
X179345033Y-73823933D02*
X179306938Y-73862028D01*
X179306938Y-73862028D02*
X179268842Y-73938219D01*
X179268842Y-73938219D02*
X179230747Y-74090600D01*
X179230747Y-74090600D02*
X179192652Y-74166790D01*
X179192652Y-74166790D02*
X179154557Y-74204885D01*
X179154557Y-74204885D02*
X179078366Y-74242981D01*
X179078366Y-74242981D02*
X179002176Y-74242981D01*
X179002176Y-74242981D02*
X178925985Y-74204885D01*
X178925985Y-74204885D02*
X178887890Y-74166790D01*
X178887890Y-74166790D02*
X178849795Y-74090600D01*
X178849795Y-74090600D02*
X178849795Y-73900123D01*
X178849795Y-73900123D02*
X178887890Y-73785838D01*
X179573604Y-72985837D02*
X179611700Y-73023933D01*
X179611700Y-73023933D02*
X179649795Y-73138218D01*
X179649795Y-73138218D02*
X179649795Y-73214409D01*
X179649795Y-73214409D02*
X179611700Y-73328695D01*
X179611700Y-73328695D02*
X179535509Y-73404885D01*
X179535509Y-73404885D02*
X179459319Y-73442980D01*
X179459319Y-73442980D02*
X179306938Y-73481076D01*
X179306938Y-73481076D02*
X179192652Y-73481076D01*
X179192652Y-73481076D02*
X179040271Y-73442980D01*
X179040271Y-73442980D02*
X178964080Y-73404885D01*
X178964080Y-73404885D02*
X178887890Y-73328695D01*
X178887890Y-73328695D02*
X178849795Y-73214409D01*
X178849795Y-73214409D02*
X178849795Y-73138218D01*
X178849795Y-73138218D02*
X178887890Y-73023933D01*
X178887890Y-73023933D02*
X178925985Y-72985837D01*
X179649795Y-72262028D02*
X179649795Y-72642980D01*
X179649795Y-72642980D02*
X178849795Y-72642980D01*
D13*
X222331071Y-78236447D02*
X222597737Y-78236447D01*
X222712023Y-78655495D02*
X222331071Y-78655495D01*
X222331071Y-78655495D02*
X222331071Y-77855495D01*
X222331071Y-77855495D02*
X222712023Y-77855495D01*
X223054881Y-78655495D02*
X223054881Y-77855495D01*
X223054881Y-77855495D02*
X223512024Y-78655495D01*
X223512024Y-78655495D02*
X223512024Y-77855495D01*
X224350119Y-78579304D02*
X224312023Y-78617400D01*
X224312023Y-78617400D02*
X224197738Y-78655495D01*
X224197738Y-78655495D02*
X224121547Y-78655495D01*
X224121547Y-78655495D02*
X224007261Y-78617400D01*
X224007261Y-78617400D02*
X223931071Y-78541209D01*
X223931071Y-78541209D02*
X223892976Y-78465019D01*
X223892976Y-78465019D02*
X223854880Y-78312638D01*
X223854880Y-78312638D02*
X223854880Y-78198352D01*
X223854880Y-78198352D02*
X223892976Y-78045971D01*
X223892976Y-78045971D02*
X223931071Y-77969780D01*
X223931071Y-77969780D02*
X224007261Y-77893590D01*
X224007261Y-77893590D02*
X224121547Y-77855495D01*
X224121547Y-77855495D02*
X224197738Y-77855495D01*
X224197738Y-77855495D02*
X224312023Y-77893590D01*
X224312023Y-77893590D02*
X224350119Y-77931685D01*
X224845357Y-77855495D02*
X224997738Y-77855495D01*
X224997738Y-77855495D02*
X225073928Y-77893590D01*
X225073928Y-77893590D02*
X225150119Y-77969780D01*
X225150119Y-77969780D02*
X225188214Y-78122161D01*
X225188214Y-78122161D02*
X225188214Y-78388828D01*
X225188214Y-78388828D02*
X225150119Y-78541209D01*
X225150119Y-78541209D02*
X225073928Y-78617400D01*
X225073928Y-78617400D02*
X224997738Y-78655495D01*
X224997738Y-78655495D02*
X224845357Y-78655495D01*
X224845357Y-78655495D02*
X224769166Y-78617400D01*
X224769166Y-78617400D02*
X224692976Y-78541209D01*
X224692976Y-78541209D02*
X224654880Y-78388828D01*
X224654880Y-78388828D02*
X224654880Y-78122161D01*
X224654880Y-78122161D02*
X224692976Y-77969780D01*
X224692976Y-77969780D02*
X224769166Y-77893590D01*
X224769166Y-77893590D02*
X224845357Y-77855495D01*
X225531071Y-78655495D02*
X225531071Y-77855495D01*
X225531071Y-77855495D02*
X225721547Y-77855495D01*
X225721547Y-77855495D02*
X225835833Y-77893590D01*
X225835833Y-77893590D02*
X225912023Y-77969780D01*
X225912023Y-77969780D02*
X225950118Y-78045971D01*
X225950118Y-78045971D02*
X225988214Y-78198352D01*
X225988214Y-78198352D02*
X225988214Y-78312638D01*
X225988214Y-78312638D02*
X225950118Y-78465019D01*
X225950118Y-78465019D02*
X225912023Y-78541209D01*
X225912023Y-78541209D02*
X225835833Y-78617400D01*
X225835833Y-78617400D02*
X225721547Y-78655495D01*
X225721547Y-78655495D02*
X225531071Y-78655495D01*
X226331071Y-78236447D02*
X226597737Y-78236447D01*
X226712023Y-78655495D02*
X226331071Y-78655495D01*
X226331071Y-78655495D02*
X226331071Y-77855495D01*
X226331071Y-77855495D02*
X226712023Y-77855495D01*
X227512024Y-78655495D02*
X227245357Y-78274542D01*
X227054881Y-78655495D02*
X227054881Y-77855495D01*
X227054881Y-77855495D02*
X227359643Y-77855495D01*
X227359643Y-77855495D02*
X227435833Y-77893590D01*
X227435833Y-77893590D02*
X227473928Y-77931685D01*
X227473928Y-77931685D02*
X227512024Y-78007876D01*
X227512024Y-78007876D02*
X227512024Y-78122161D01*
X227512024Y-78122161D02*
X227473928Y-78198352D01*
X227473928Y-78198352D02*
X227435833Y-78236447D01*
X227435833Y-78236447D02*
X227359643Y-78274542D01*
X227359643Y-78274542D02*
X227054881Y-78274542D01*
D12*
X190858928Y-74130419D02*
X191049404Y-74130419D01*
X191049404Y-74130419D02*
X191144642Y-74178038D01*
X191144642Y-74178038D02*
X191239880Y-74273276D01*
X191239880Y-74273276D02*
X191287499Y-74463752D01*
X191287499Y-74463752D02*
X191287499Y-74797085D01*
X191287499Y-74797085D02*
X191239880Y-74987561D01*
X191239880Y-74987561D02*
X191144642Y-75082800D01*
X191144642Y-75082800D02*
X191049404Y-75130419D01*
X191049404Y-75130419D02*
X190858928Y-75130419D01*
X190858928Y-75130419D02*
X190763690Y-75082800D01*
X190763690Y-75082800D02*
X190668452Y-74987561D01*
X190668452Y-74987561D02*
X190620833Y-74797085D01*
X190620833Y-74797085D02*
X190620833Y-74463752D01*
X190620833Y-74463752D02*
X190668452Y-74273276D01*
X190668452Y-74273276D02*
X190763690Y-74178038D01*
X190763690Y-74178038D02*
X190858928Y-74130419D01*
X192192261Y-75130419D02*
X191716071Y-75130419D01*
X191716071Y-75130419D02*
X191716071Y-74130419D01*
X192525595Y-74606609D02*
X192858928Y-74606609D01*
X193001785Y-75130419D02*
X192525595Y-75130419D01*
X192525595Y-75130419D02*
X192525595Y-74130419D01*
X192525595Y-74130419D02*
X193001785Y-74130419D01*
X193430357Y-75130419D02*
X193430357Y-74130419D01*
X193430357Y-74130419D02*
X193668452Y-74130419D01*
X193668452Y-74130419D02*
X193811309Y-74178038D01*
X193811309Y-74178038D02*
X193906547Y-74273276D01*
X193906547Y-74273276D02*
X193954166Y-74368514D01*
X193954166Y-74368514D02*
X194001785Y-74558990D01*
X194001785Y-74558990D02*
X194001785Y-74701847D01*
X194001785Y-74701847D02*
X193954166Y-74892323D01*
X193954166Y-74892323D02*
X193906547Y-74987561D01*
X193906547Y-74987561D02*
X193811309Y-75082800D01*
X193811309Y-75082800D02*
X193668452Y-75130419D01*
X193668452Y-75130419D02*
X193430357Y-75130419D01*
X195192262Y-75130419D02*
X195192262Y-74130419D01*
X195192262Y-74130419D02*
X195573214Y-74130419D01*
X195573214Y-74130419D02*
X195668452Y-74178038D01*
X195668452Y-74178038D02*
X195716071Y-74225657D01*
X195716071Y-74225657D02*
X195763690Y-74320895D01*
X195763690Y-74320895D02*
X195763690Y-74463752D01*
X195763690Y-74463752D02*
X195716071Y-74558990D01*
X195716071Y-74558990D02*
X195668452Y-74606609D01*
X195668452Y-74606609D02*
X195573214Y-74654228D01*
X195573214Y-74654228D02*
X195192262Y-74654228D01*
X196620833Y-75130419D02*
X196620833Y-74606609D01*
X196620833Y-74606609D02*
X196573214Y-74511371D01*
X196573214Y-74511371D02*
X196477976Y-74463752D01*
X196477976Y-74463752D02*
X196287500Y-74463752D01*
X196287500Y-74463752D02*
X196192262Y-74511371D01*
X196620833Y-75082800D02*
X196525595Y-75130419D01*
X196525595Y-75130419D02*
X196287500Y-75130419D01*
X196287500Y-75130419D02*
X196192262Y-75082800D01*
X196192262Y-75082800D02*
X196144643Y-74987561D01*
X196144643Y-74987561D02*
X196144643Y-74892323D01*
X196144643Y-74892323D02*
X196192262Y-74797085D01*
X196192262Y-74797085D02*
X196287500Y-74749466D01*
X196287500Y-74749466D02*
X196525595Y-74749466D01*
X196525595Y-74749466D02*
X196620833Y-74701847D01*
X197097024Y-74463752D02*
X197097024Y-75130419D01*
X197097024Y-74558990D02*
X197144643Y-74511371D01*
X197144643Y-74511371D02*
X197239881Y-74463752D01*
X197239881Y-74463752D02*
X197382738Y-74463752D01*
X197382738Y-74463752D02*
X197477976Y-74511371D01*
X197477976Y-74511371D02*
X197525595Y-74606609D01*
X197525595Y-74606609D02*
X197525595Y-75130419D01*
X198382738Y-75082800D02*
X198287500Y-75130419D01*
X198287500Y-75130419D02*
X198097024Y-75130419D01*
X198097024Y-75130419D02*
X198001786Y-75082800D01*
X198001786Y-75082800D02*
X197954167Y-74987561D01*
X197954167Y-74987561D02*
X197954167Y-74606609D01*
X197954167Y-74606609D02*
X198001786Y-74511371D01*
X198001786Y-74511371D02*
X198097024Y-74463752D01*
X198097024Y-74463752D02*
X198287500Y-74463752D01*
X198287500Y-74463752D02*
X198382738Y-74511371D01*
X198382738Y-74511371D02*
X198430357Y-74606609D01*
X198430357Y-74606609D02*
X198430357Y-74701847D01*
X198430357Y-74701847D02*
X197954167Y-74797085D01*
X199001786Y-75130419D02*
X198906548Y-75082800D01*
X198906548Y-75082800D02*
X198858929Y-74987561D01*
X198858929Y-74987561D02*
X198858929Y-74130419D01*
D14*
X178849275Y-77357266D02*
X179649275Y-77090599D01*
X179649275Y-77090599D02*
X178849275Y-76823933D01*
X179573084Y-76100123D02*
X179611180Y-76138219D01*
X179611180Y-76138219D02*
X179649275Y-76252504D01*
X179649275Y-76252504D02*
X179649275Y-76328695D01*
X179649275Y-76328695D02*
X179611180Y-76442981D01*
X179611180Y-76442981D02*
X179534989Y-76519171D01*
X179534989Y-76519171D02*
X179458799Y-76557266D01*
X179458799Y-76557266D02*
X179306418Y-76595362D01*
X179306418Y-76595362D02*
X179192132Y-76595362D01*
X179192132Y-76595362D02*
X179039751Y-76557266D01*
X179039751Y-76557266D02*
X178963560Y-76519171D01*
X178963560Y-76519171D02*
X178887370Y-76442981D01*
X178887370Y-76442981D02*
X178849275Y-76328695D01*
X178849275Y-76328695D02*
X178849275Y-76252504D01*
X178849275Y-76252504D02*
X178887370Y-76138219D01*
X178887370Y-76138219D02*
X178925465Y-76100123D01*
X179573084Y-75300123D02*
X179611180Y-75338219D01*
X179611180Y-75338219D02*
X179649275Y-75452504D01*
X179649275Y-75452504D02*
X179649275Y-75528695D01*
X179649275Y-75528695D02*
X179611180Y-75642981D01*
X179611180Y-75642981D02*
X179534989Y-75719171D01*
X179534989Y-75719171D02*
X179458799Y-75757266D01*
X179458799Y-75757266D02*
X179306418Y-75795362D01*
X179306418Y-75795362D02*
X179192132Y-75795362D01*
X179192132Y-75795362D02*
X179039751Y-75757266D01*
X179039751Y-75757266D02*
X178963560Y-75719171D01*
X178963560Y-75719171D02*
X178887370Y-75642981D01*
X178887370Y-75642981D02*
X178849275Y-75528695D01*
X178849275Y-75528695D02*
X178849275Y-75452504D01*
X178849275Y-75452504D02*
X178887370Y-75338219D01*
X178887370Y-75338219D02*
X178925465Y-75300123D01*
D13*
X153221150Y-108168171D02*
X153459245Y-108834838D01*
X153459245Y-108834838D02*
X153697340Y-108168171D01*
X154602102Y-108834838D02*
X154030674Y-108834838D01*
X154316388Y-108834838D02*
X154316388Y-107834838D01*
X154316388Y-107834838D02*
X154221150Y-107977695D01*
X154221150Y-107977695D02*
X154125912Y-108072933D01*
X154125912Y-108072933D02*
X154030674Y-108120552D01*
X155030674Y-108739599D02*
X155078293Y-108787219D01*
X155078293Y-108787219D02*
X155030674Y-108834838D01*
X155030674Y-108834838D02*
X154983055Y-108787219D01*
X154983055Y-108787219D02*
X155030674Y-108739599D01*
X155030674Y-108739599D02*
X155030674Y-108834838D01*
X155697340Y-107834838D02*
X155792578Y-107834838D01*
X155792578Y-107834838D02*
X155887816Y-107882457D01*
X155887816Y-107882457D02*
X155935435Y-107930076D01*
X155935435Y-107930076D02*
X155983054Y-108025314D01*
X155983054Y-108025314D02*
X156030673Y-108215790D01*
X156030673Y-108215790D02*
X156030673Y-108453885D01*
X156030673Y-108453885D02*
X155983054Y-108644361D01*
X155983054Y-108644361D02*
X155935435Y-108739599D01*
X155935435Y-108739599D02*
X155887816Y-108787219D01*
X155887816Y-108787219D02*
X155792578Y-108834838D01*
X155792578Y-108834838D02*
X155697340Y-108834838D01*
X155697340Y-108834838D02*
X155602102Y-108787219D01*
X155602102Y-108787219D02*
X155554483Y-108739599D01*
X155554483Y-108739599D02*
X155506864Y-108644361D01*
X155506864Y-108644361D02*
X155459245Y-108453885D01*
X155459245Y-108453885D02*
X155459245Y-108215790D01*
X155459245Y-108215790D02*
X155506864Y-108025314D01*
X155506864Y-108025314D02*
X155554483Y-107930076D01*
X155554483Y-107930076D02*
X155602102Y-107882457D01*
X155602102Y-107882457D02*
X155697340Y-107834838D01*
X157411626Y-107834838D02*
X157506864Y-107834838D01*
X157506864Y-107834838D02*
X157602102Y-107882457D01*
X157602102Y-107882457D02*
X157649721Y-107930076D01*
X157649721Y-107930076D02*
X157697340Y-108025314D01*
X157697340Y-108025314D02*
X157744959Y-108215790D01*
X157744959Y-108215790D02*
X157744959Y-108453885D01*
X157744959Y-108453885D02*
X157697340Y-108644361D01*
X157697340Y-108644361D02*
X157649721Y-108739599D01*
X157649721Y-108739599D02*
X157602102Y-108787219D01*
X157602102Y-108787219D02*
X157506864Y-108834838D01*
X157506864Y-108834838D02*
X157411626Y-108834838D01*
X157411626Y-108834838D02*
X157316388Y-108787219D01*
X157316388Y-108787219D02*
X157268769Y-108739599D01*
X157268769Y-108739599D02*
X157221150Y-108644361D01*
X157221150Y-108644361D02*
X157173531Y-108453885D01*
X157173531Y-108453885D02*
X157173531Y-108215790D01*
X157173531Y-108215790D02*
X157221150Y-108025314D01*
X157221150Y-108025314D02*
X157268769Y-107930076D01*
X157268769Y-107930076D02*
X157316388Y-107882457D01*
X157316388Y-107882457D02*
X157411626Y-107834838D01*
X158078293Y-107834838D02*
X158697340Y-107834838D01*
X158697340Y-107834838D02*
X158364007Y-108215790D01*
X158364007Y-108215790D02*
X158506864Y-108215790D01*
X158506864Y-108215790D02*
X158602102Y-108263409D01*
X158602102Y-108263409D02*
X158649721Y-108311028D01*
X158649721Y-108311028D02*
X158697340Y-108406266D01*
X158697340Y-108406266D02*
X158697340Y-108644361D01*
X158697340Y-108644361D02*
X158649721Y-108739599D01*
X158649721Y-108739599D02*
X158602102Y-108787219D01*
X158602102Y-108787219D02*
X158506864Y-108834838D01*
X158506864Y-108834838D02*
X158221150Y-108834838D01*
X158221150Y-108834838D02*
X158125912Y-108787219D01*
X158125912Y-108787219D02*
X158078293Y-108739599D01*
X159840197Y-107787219D02*
X158983055Y-109072933D01*
X160125912Y-107930076D02*
X160173531Y-107882457D01*
X160173531Y-107882457D02*
X160268769Y-107834838D01*
X160268769Y-107834838D02*
X160506864Y-107834838D01*
X160506864Y-107834838D02*
X160602102Y-107882457D01*
X160602102Y-107882457D02*
X160649721Y-107930076D01*
X160649721Y-107930076D02*
X160697340Y-108025314D01*
X160697340Y-108025314D02*
X160697340Y-108120552D01*
X160697340Y-108120552D02*
X160649721Y-108263409D01*
X160649721Y-108263409D02*
X160078293Y-108834838D01*
X160078293Y-108834838D02*
X160697340Y-108834838D01*
X161316388Y-107834838D02*
X161411626Y-107834838D01*
X161411626Y-107834838D02*
X161506864Y-107882457D01*
X161506864Y-107882457D02*
X161554483Y-107930076D01*
X161554483Y-107930076D02*
X161602102Y-108025314D01*
X161602102Y-108025314D02*
X161649721Y-108215790D01*
X161649721Y-108215790D02*
X161649721Y-108453885D01*
X161649721Y-108453885D02*
X161602102Y-108644361D01*
X161602102Y-108644361D02*
X161554483Y-108739599D01*
X161554483Y-108739599D02*
X161506864Y-108787219D01*
X161506864Y-108787219D02*
X161411626Y-108834838D01*
X161411626Y-108834838D02*
X161316388Y-108834838D01*
X161316388Y-108834838D02*
X161221150Y-108787219D01*
X161221150Y-108787219D02*
X161173531Y-108739599D01*
X161173531Y-108739599D02*
X161125912Y-108644361D01*
X161125912Y-108644361D02*
X161078293Y-108453885D01*
X161078293Y-108453885D02*
X161078293Y-108215790D01*
X161078293Y-108215790D02*
X161125912Y-108025314D01*
X161125912Y-108025314D02*
X161173531Y-107930076D01*
X161173531Y-107930076D02*
X161221150Y-107882457D01*
X161221150Y-107882457D02*
X161316388Y-107834838D01*
X162030674Y-107930076D02*
X162078293Y-107882457D01*
X162078293Y-107882457D02*
X162173531Y-107834838D01*
X162173531Y-107834838D02*
X162411626Y-107834838D01*
X162411626Y-107834838D02*
X162506864Y-107882457D01*
X162506864Y-107882457D02*
X162554483Y-107930076D01*
X162554483Y-107930076D02*
X162602102Y-108025314D01*
X162602102Y-108025314D02*
X162602102Y-108120552D01*
X162602102Y-108120552D02*
X162554483Y-108263409D01*
X162554483Y-108263409D02*
X161983055Y-108834838D01*
X161983055Y-108834838D02*
X162602102Y-108834838D01*
X163506864Y-107834838D02*
X163030674Y-107834838D01*
X163030674Y-107834838D02*
X162983055Y-108311028D01*
X162983055Y-108311028D02*
X163030674Y-108263409D01*
X163030674Y-108263409D02*
X163125912Y-108215790D01*
X163125912Y-108215790D02*
X163364007Y-108215790D01*
X163364007Y-108215790D02*
X163459245Y-108263409D01*
X163459245Y-108263409D02*
X163506864Y-108311028D01*
X163506864Y-108311028D02*
X163554483Y-108406266D01*
X163554483Y-108406266D02*
X163554483Y-108644361D01*
X163554483Y-108644361D02*
X163506864Y-108739599D01*
X163506864Y-108739599D02*
X163459245Y-108787219D01*
X163459245Y-108787219D02*
X163364007Y-108834838D01*
X163364007Y-108834838D02*
X163125912Y-108834838D01*
X163125912Y-108834838D02*
X163030674Y-108787219D01*
X163030674Y-108787219D02*
X162983055Y-108739599D01*
D15*
%TO.C,SW1*%
X216852500Y-70190600D02*
X217452500Y-70190600D01*
X217152500Y-70490600D02*
X216852500Y-70190600D01*
X217452500Y-70190600D02*
X217152500Y-70490600D01*
X218552500Y-68390600D02*
X218552500Y-80190600D01*
X222652500Y-68390600D02*
X218552500Y-68390600D01*
X222652500Y-80190600D02*
X218552500Y-80190600D01*
X224152500Y-74290600D02*
X225152500Y-74290600D01*
X224652500Y-73790600D02*
X224652500Y-74790600D01*
X226652500Y-68390600D02*
X230752500Y-68390600D01*
X230752500Y-68390600D02*
X230752500Y-70790600D01*
X230752500Y-72990600D02*
X230752500Y-75590600D01*
X230752500Y-77790600D02*
X230752500Y-80190600D01*
X230752500Y-80190600D02*
X226652500Y-80190600D01*
X227652500Y-74290600D02*
G75*
G02*
X221652500Y-74290600I-3000000J0D01*
G01*
X221652500Y-74290600D02*
G75*
G02*
X227652500Y-74290600I3000000J0D01*
G01*
%TO.C,SW3*%
X197337500Y-88314900D02*
X211307500Y-88314900D01*
X197337500Y-102284900D02*
X197337500Y-88314900D01*
X211307500Y-88314900D02*
X211307500Y-102284900D01*
X211307500Y-102284900D02*
X197337500Y-102284900D01*
%TO.C,SW7*%
X197337500Y-107364900D02*
X211307500Y-107364900D01*
X197337500Y-121334900D02*
X197337500Y-107364900D01*
X211307500Y-107364900D02*
X211307500Y-121334900D01*
X211307500Y-121334900D02*
X197337500Y-121334900D01*
%TO.C,D2*%
X193782500Y-96579900D02*
X196022500Y-96579900D01*
X193782500Y-96699900D02*
X196022500Y-96699900D01*
X193782500Y-96819900D02*
X196022500Y-96819900D01*
X194902500Y-92529900D02*
X194902500Y-93179900D01*
X194902500Y-98069900D02*
X194902500Y-97419900D01*
X193782500Y-97419900D02*
X196022500Y-97419900D01*
X196022500Y-93179900D01*
X193782500Y-93179900D01*
X193782500Y-97419900D01*
%TO.C,SW4*%
X216387500Y-88314900D02*
X230357500Y-88314900D01*
X216387500Y-102284900D02*
X216387500Y-88314900D01*
X230357500Y-88314900D02*
X230357500Y-102284900D01*
X230357500Y-102284900D02*
X216387500Y-102284900D01*
%TO.C,D3*%
X212782500Y-96579900D02*
X215022500Y-96579900D01*
X212782500Y-96699900D02*
X215022500Y-96699900D01*
X212782500Y-96819900D02*
X215022500Y-96819900D01*
X213902500Y-92529900D02*
X213902500Y-93179900D01*
X213902500Y-98069900D02*
X213902500Y-97419900D01*
X212782500Y-97419900D02*
X215022500Y-97419900D01*
X215022500Y-93179900D01*
X212782500Y-93179900D01*
X212782500Y-97419900D01*
%TO.C,D13*%
X221632500Y-83790600D02*
X222282500Y-83790600D01*
X222882500Y-82670600D02*
X222882500Y-84910600D01*
X223002500Y-82670600D02*
X223002500Y-84910600D01*
X223122500Y-82670600D02*
X223122500Y-84910600D01*
X227172500Y-83790600D02*
X226522500Y-83790600D01*
X222282500Y-82670600D02*
X226522500Y-82670600D01*
X226522500Y-84910600D01*
X222282500Y-84910600D01*
X222282500Y-82670600D01*
%TO.C,SW6*%
X216387500Y-107364900D02*
X230357500Y-107364900D01*
X216387500Y-121334900D02*
X216387500Y-107364900D01*
X230357500Y-107364900D02*
X230357500Y-121334900D01*
X230357500Y-121334900D02*
X216387500Y-121334900D01*
%TO.C,D4*%
X174782500Y-115579900D02*
X177022500Y-115579900D01*
X174782500Y-115699900D02*
X177022500Y-115699900D01*
X174782500Y-115819900D02*
X177022500Y-115819900D01*
X175902500Y-111529900D02*
X175902500Y-112179900D01*
X175902500Y-117069900D02*
X175902500Y-116419900D01*
X174782500Y-116419900D02*
X177022500Y-116419900D01*
X177022500Y-112179900D01*
X174782500Y-112179900D01*
X174782500Y-116419900D01*
%TO.C,SW5*%
X178287500Y-107364900D02*
X192257500Y-107364900D01*
X178287500Y-121334900D02*
X178287500Y-107364900D01*
X192257500Y-107364900D02*
X192257500Y-121334900D01*
X192257500Y-121334900D02*
X178287500Y-121334900D01*
%TO.C,J1*%
X176902500Y-79980600D02*
X178282500Y-79980600D01*
X178282500Y-78600600D02*
X178282500Y-79980600D01*
X175402500Y-80790600D02*
X213402500Y-80790600D01*
X213402500Y-68790600D01*
X175402500Y-68790600D01*
X175402500Y-80790600D01*
%TO.C,D6*%
X212782500Y-115579900D02*
X215022500Y-115579900D01*
X212782500Y-115699900D02*
X215022500Y-115699900D01*
X212782500Y-115819900D02*
X215022500Y-115819900D01*
X213902500Y-111529900D02*
X213902500Y-112179900D01*
X213902500Y-117069900D02*
X213902500Y-116419900D01*
X212782500Y-116419900D02*
X215022500Y-116419900D01*
X215022500Y-112179900D01*
X212782500Y-112179900D01*
X212782500Y-116419900D01*
%TO.C,SW2*%
X178287500Y-88314900D02*
X192257500Y-88314900D01*
X178287500Y-102284900D02*
X178287500Y-88314900D01*
X192257500Y-88314900D02*
X192257500Y-102284900D01*
X192257500Y-102284900D02*
X178287500Y-102284900D01*
%TO.C,D1*%
X174782500Y-96579900D02*
X177022500Y-96579900D01*
X174782500Y-96699900D02*
X177022500Y-96699900D01*
X174782500Y-96819900D02*
X177022500Y-96819900D01*
X175902500Y-92529900D02*
X175902500Y-93179900D01*
X175902500Y-98069900D02*
X175902500Y-97419900D01*
X174782500Y-97419900D02*
X177022500Y-97419900D01*
X177022500Y-93179900D01*
X174782500Y-93179900D01*
X174782500Y-97419900D01*
%TO.C,D5*%
X193782500Y-115579900D02*
X196022500Y-115579900D01*
X193782500Y-115699900D02*
X196022500Y-115699900D01*
X193782500Y-115819900D02*
X196022500Y-115819900D01*
X194902500Y-111529900D02*
X194902500Y-112179900D01*
X194902500Y-117069900D02*
X194902500Y-116419900D01*
X193782500Y-116419900D02*
X196022500Y-116419900D01*
X196022500Y-112179900D01*
X193782500Y-112179900D01*
X193782500Y-116419900D01*
%TD*%
M02*
