%TF.GenerationSoftware,KiCad,Pcbnew,9.0.7*%
%TF.CreationDate,2026-03-08T16:08:37+04:00*%
%TF.ProjectId,hackpad,6861636b-7061-4642-9e6b-696361645f70,rev?*%
%TF.SameCoordinates,Original*%
%TF.FileFunction,Soldermask,Bot*%
%TF.FilePolarity,Negative*%
%FSLAX46Y46*%
G04 Gerber Fmt 4.6, Leading zero omitted, Abs format (unit mm)*
G04 Created by KiCad (PCBNEW 9.0.7) date 2026-03-08 16:08:37*
%MOMM*%
%LPD*%
G01*
G04 APERTURE LIST*
G04 Aperture macros list*
%AMRoundRect*
0 Rectangle with rounded corners*
0 $1 Rounding radius*
0 $2 $3 $4 $5 $6 $7 $8 $9 X,Y pos of 4 corners*
0 Add a 4 corners polygon primitive as box body*
4,1,4,$2,$3,$4,$5,$6,$7,$8,$9,$2,$3,0*
0 Add four circle primitives for the rounded corners*
1,1,$1+$1,$2,$3*
1,1,$1+$1,$4,$5*
1,1,$1+$1,$6,$7*
1,1,$1+$1,$8,$9*
0 Add four rect primitives between the rounded corners*
20,1,$1+$1,$2,$3,$4,$5,0*
20,1,$1+$1,$4,$5,$6,$7,0*
20,1,$1+$1,$6,$7,$8,$9,0*
20,1,$1+$1,$8,$9,$2,$3,0*%
G04 Aperture macros list end*
%ADD10RoundRect,0.082000X0.718000X-0.328000X0.718000X0.328000X-0.718000X0.328000X-0.718000X-0.328000X0*%
%ADD11R,2.000000X2.000000*%
%ADD12C,2.000000*%
%ADD13R,3.200000X2.000000*%
%ADD14C,1.700000*%
%ADD15C,4.000000*%
%ADD16C,2.200000*%
%ADD17RoundRect,0.250000X0.550000X-0.550000X0.550000X0.550000X-0.550000X0.550000X-0.550000X-0.550000X0*%
%ADD18C,1.600000*%
%ADD19RoundRect,0.250000X-0.550000X-0.550000X0.550000X-0.550000X0.550000X0.550000X-0.550000X0.550000X0*%
%ADD20RoundRect,0.170000X0.680000X-0.680000X0.680000X0.680000X-0.680000X0.680000X-0.680000X-0.680000X0*%
%ADD21C,1.524000*%
%ADD22RoundRect,0.152400X0.609600X-1.063600X0.609600X1.063600X-0.609600X1.063600X-0.609600X-1.063600X0*%
%ADD23RoundRect,0.152400X-0.609600X1.063600X-0.609600X-1.063600X0.609600X-1.063600X0.609600X1.063600X0*%
G04 APERTURE END LIST*
D10*
%TO.C,D7*%
X225825000Y-101162400D03*
X225825000Y-99662400D03*
X220625000Y-99662400D03*
X220625000Y-101162400D03*
%TD*%
%TO.C,D11*%
X187512500Y-120259900D03*
X187512500Y-118759900D03*
X182312500Y-118759900D03*
X182312500Y-120259900D03*
%TD*%
D11*
%TO.C,SW1*%
X217152500Y-71790600D03*
D12*
X217152500Y-76790600D03*
X217152500Y-74290600D03*
D13*
X224652500Y-68690600D03*
X224652500Y-79890600D03*
D12*
X231652500Y-76790600D03*
X231652500Y-71790600D03*
%TD*%
D14*
%TO.C,SW3*%
X199242500Y-95299900D03*
D15*
X204322500Y-95299900D03*
D14*
X209402500Y-95299900D03*
D16*
X206862500Y-90219900D03*
X200512500Y-92759900D03*
%TD*%
D10*
%TO.C,D8*%
X226012500Y-120259900D03*
X226012500Y-118759900D03*
X220812500Y-118759900D03*
X220812500Y-120259900D03*
%TD*%
D14*
%TO.C,SW7*%
X199242500Y-114349900D03*
D15*
X204322500Y-114349900D03*
D14*
X209402500Y-114349900D03*
D16*
X206862500Y-109269900D03*
X200512500Y-111809900D03*
%TD*%
D17*
%TO.C,D2*%
X194902500Y-99109900D03*
D18*
X194902500Y-91489900D03*
%TD*%
D10*
%TO.C,D9*%
X206825000Y-120162400D03*
X206825000Y-118662400D03*
X201625000Y-118662400D03*
X201625000Y-120162400D03*
%TD*%
D14*
%TO.C,SW4*%
X218292500Y-95299900D03*
D15*
X223372500Y-95299900D03*
D14*
X228452500Y-95299900D03*
D16*
X225912500Y-90219900D03*
X219562500Y-92759900D03*
%TD*%
D17*
%TO.C,D3*%
X213902500Y-99109900D03*
D18*
X213902500Y-91489900D03*
%TD*%
D19*
%TO.C,D13*%
X220592500Y-83790600D03*
D18*
X228212500Y-83790600D03*
%TD*%
D10*
%TO.C,D10*%
X207012500Y-101259900D03*
X207012500Y-99759900D03*
X201812500Y-99759900D03*
X201812500Y-101259900D03*
%TD*%
D14*
%TO.C,SW6*%
X218292500Y-114349900D03*
D15*
X223372500Y-114349900D03*
D14*
X228452500Y-114349900D03*
D16*
X225912500Y-109269900D03*
X219562500Y-111809900D03*
%TD*%
D17*
%TO.C,D4*%
X175902500Y-118109900D03*
D18*
X175902500Y-110489900D03*
%TD*%
D14*
%TO.C,SW5*%
X180192500Y-114349900D03*
D15*
X185272500Y-114349900D03*
D14*
X190352500Y-114349900D03*
D16*
X187812500Y-109269900D03*
X181462500Y-111809900D03*
%TD*%
D20*
%TO.C,J1*%
X176902500Y-78600600D03*
D14*
X176902500Y-76060600D03*
X176902500Y-73520600D03*
X176902500Y-70980600D03*
%TD*%
D10*
%TO.C,D12*%
X187512500Y-101259900D03*
X187512500Y-99759900D03*
X182312500Y-99759900D03*
X182312500Y-101259900D03*
%TD*%
D17*
%TO.C,D6*%
X213902500Y-118109900D03*
D18*
X213902500Y-110489900D03*
%TD*%
D14*
%TO.C,SW2*%
X180192500Y-95299900D03*
D15*
X185272500Y-95299900D03*
D14*
X190352500Y-95299900D03*
D16*
X187812500Y-90219900D03*
X181462500Y-92759900D03*
%TD*%
D17*
%TO.C,D1*%
X175902500Y-99109900D03*
D18*
X175902500Y-91489900D03*
%TD*%
D17*
%TO.C,D5*%
X194902500Y-118109900D03*
D18*
X194902500Y-110489900D03*
%TD*%
D21*
%TO.C,U1*%
X152282500Y-72170600D03*
D22*
X152282500Y-71335600D03*
D21*
X154822500Y-72170600D03*
D22*
X154822500Y-71335600D03*
D21*
X157362500Y-72170600D03*
D22*
X157362500Y-71335600D03*
D21*
X159902500Y-72170600D03*
D22*
X159902500Y-71335600D03*
D21*
X162442500Y-72170600D03*
D22*
X162442500Y-71335600D03*
D21*
X164982500Y-72170600D03*
D22*
X164982500Y-71335600D03*
D21*
X167522500Y-72170600D03*
D22*
X167522500Y-71335600D03*
D23*
X167522500Y-88245600D03*
D21*
X167522500Y-87410600D03*
D23*
X164982500Y-88245600D03*
D21*
X164982500Y-87410600D03*
D23*
X162442500Y-88245600D03*
D21*
X162442500Y-87410600D03*
D23*
X159902500Y-88245600D03*
D21*
X159902500Y-87410600D03*
D23*
X157362500Y-88245600D03*
D21*
X157362500Y-87410600D03*
D23*
X154822500Y-88245600D03*
D21*
X154822500Y-87410600D03*
D23*
X152282500Y-88245600D03*
D21*
X152282500Y-87410600D03*
%TD*%
M02*
