%TF.GenerationSoftware,KiCad,Pcbnew,9.0.7*%
%TF.CreationDate,2026-03-08T16:08:37+04:00*%
%TF.ProjectId,hackpad,6861636b-7061-4642-9e6b-696361645f70,rev?*%
%TF.SameCoordinates,Original*%
%TF.FileFunction,Copper,L2,Bot*%
%TF.FilePolarity,Positive*%
%FSLAX46Y46*%
G04 Gerber Fmt 4.6, Leading zero omitted, Abs format (unit mm)*
G04 Created by KiCad (PCBNEW 9.0.7) date 2026-03-08 16:08:37*
%MOMM*%
%LPD*%
G01*
G04 APERTURE LIST*
G04 Aperture macros list*
%AMRoundRect*
0 Rectangle with rounded corners*
0 $1 Rounding radius*
0 $2 $3 $4 $5 $6 $7 $8 $9 X,Y pos of 4 corners*
0 Add a 4 corners polygon primitive as box body*
4,1,4,$2,$3,$4,$5,$6,$7,$8,$9,$2,$3,0*
0 Add four circle primitives for the rounded corners*
1,1,$1+$1,$2,$3*
1,1,$1+$1,$4,$5*
1,1,$1+$1,$6,$7*
1,1,$1+$1,$8,$9*
0 Add four rect primitives between the rounded corners*
20,1,$1+$1,$2,$3,$4,$5,0*
20,1,$1+$1,$4,$5,$6,$7,0*
20,1,$1+$1,$6,$7,$8,$9,0*
20,1,$1+$1,$8,$9,$2,$3,0*%
G04 Aperture macros list end*
%TA.AperFunction,SMDPad,CuDef*%
%ADD10RoundRect,0.082000X0.718000X-0.328000X0.718000X0.328000X-0.718000X0.328000X-0.718000X-0.328000X0*%
%TD*%
%TA.AperFunction,ComponentPad*%
%ADD11R,2.000000X2.000000*%
%TD*%
%TA.AperFunction,ComponentPad*%
%ADD12C,2.000000*%
%TD*%
%TA.AperFunction,ComponentPad*%
%ADD13R,3.200000X2.000000*%
%TD*%
%TA.AperFunction,ComponentPad*%
%ADD14C,2.200000*%
%TD*%
%TA.AperFunction,ComponentPad*%
%ADD15RoundRect,0.250000X0.550000X-0.550000X0.550000X0.550000X-0.550000X0.550000X-0.550000X-0.550000X0*%
%TD*%
%TA.AperFunction,ComponentPad*%
%ADD16C,1.600000*%
%TD*%
%TA.AperFunction,ComponentPad*%
%ADD17RoundRect,0.250000X-0.550000X-0.550000X0.550000X-0.550000X0.550000X0.550000X-0.550000X0.550000X0*%
%TD*%
%TA.AperFunction,ComponentPad*%
%ADD18RoundRect,0.170000X0.680000X-0.680000X0.680000X0.680000X-0.680000X0.680000X-0.680000X-0.680000X0*%
%TD*%
%TA.AperFunction,ComponentPad*%
%ADD19C,1.700000*%
%TD*%
%TA.AperFunction,ComponentPad*%
%ADD20C,1.524000*%
%TD*%
%TA.AperFunction,SMDPad,CuDef*%
%ADD21RoundRect,0.152400X0.609600X-1.063600X0.609600X1.063600X-0.609600X1.063600X-0.609600X-1.063600X0*%
%TD*%
%TA.AperFunction,SMDPad,CuDef*%
%ADD22RoundRect,0.152400X-0.609600X1.063600X-0.609600X-1.063600X0.609600X-1.063600X0.609600X1.063600X0*%
%TD*%
%TA.AperFunction,ViaPad*%
%ADD23C,0.600000*%
%TD*%
%TA.AperFunction,Conductor*%
%ADD24C,0.200000*%
%TD*%
G04 APERTURE END LIST*
D10*
%TO.P,D7,1,VDD*%
%TO.N,+5V*%
X225825000Y-101162400D03*
%TO.P,D7,2,DOUT*%
%TO.N,Net-(D7-DOUT)*%
X225825000Y-99662400D03*
%TO.P,D7,3,VSS*%
%TO.N,GND*%
X220625000Y-99662400D03*
%TO.P,D7,4,DIN*%
%TO.N,Net-(D7-DIN)*%
X220625000Y-101162400D03*
%TD*%
%TO.P,D11,1,VDD*%
%TO.N,Net-(D10-VDD)*%
X187512500Y-120259900D03*
%TO.P,D11,2,DOUT*%
%TO.N,Net-(D11-DOUT)*%
X187512500Y-118759900D03*
%TO.P,D11,3,VSS*%
%TO.N,Net-(D10-VSS)*%
X182312500Y-118759900D03*
%TO.P,D11,4,DIN*%
%TO.N,Net-(D10-DOUT)*%
X182312500Y-120259900D03*
%TD*%
D11*
%TO.P,SW1,A,A*%
%TO.N,Net-(U1-PA7_A8_D8_SCK)*%
X217152500Y-71790600D03*
D12*
%TO.P,SW1,B,B*%
%TO.N,Net-(U1-PA5_A9_D9_MISO)*%
X217152500Y-76790600D03*
%TO.P,SW1,C,C*%
%TO.N,Net-(D10-VSS)*%
X217152500Y-74290600D03*
D13*
%TO.P,SW1,MP*%
%TO.N,N/C*%
X224652500Y-68690600D03*
X224652500Y-79890600D03*
D12*
%TO.P,SW1,S1,S1*%
%TO.N,Net-(D13-A)*%
X231652500Y-76790600D03*
%TO.P,SW1,S2,S2*%
%TO.N,Net-(D10-VSS)*%
X231652500Y-71790600D03*
%TD*%
D14*
%TO.P,SW3,1,1*%
%TO.N,Net-(U1-PA02_A0_D0)*%
X206862500Y-90219900D03*
%TO.P,SW3,2,2*%
%TO.N,Net-(D2-A)*%
X200512500Y-92759900D03*
%TD*%
D10*
%TO.P,D8,1,VDD*%
%TO.N,Net-(D10-VDD)*%
X226012500Y-120259900D03*
%TO.P,D8,2,DOUT*%
%TO.N,Net-(D8-DOUT)*%
X226012500Y-118759900D03*
%TO.P,D8,3,VSS*%
%TO.N,Net-(D10-VSS)*%
X220812500Y-118759900D03*
%TO.P,D8,4,DIN*%
%TO.N,Net-(D7-DOUT)*%
X220812500Y-120259900D03*
%TD*%
D14*
%TO.P,SW7,1,1*%
%TO.N,Net-(U1-PA10_A2_D2)*%
X206862500Y-109269900D03*
%TO.P,SW7,2,2*%
%TO.N,Net-(D6-A)*%
X200512500Y-111809900D03*
%TD*%
D15*
%TO.P,D2,1,K*%
%TO.N,Net-(D2-K)*%
X194902500Y-99109900D03*
D16*
%TO.P,D2,2,A*%
%TO.N,Net-(D2-A)*%
X194902500Y-91489900D03*
%TD*%
D10*
%TO.P,D9,1,VDD*%
%TO.N,Net-(D10-VDD)*%
X206825000Y-120162400D03*
%TO.P,D9,2,DOUT*%
%TO.N,Net-(D10-DIN)*%
X206825000Y-118662400D03*
%TO.P,D9,3,VSS*%
%TO.N,Net-(D10-VSS)*%
X201625000Y-118662400D03*
%TO.P,D9,4,DIN*%
%TO.N,Net-(D8-DOUT)*%
X201625000Y-120162400D03*
%TD*%
D14*
%TO.P,SW4,1,1*%
%TO.N,Net-(U1-PA4_A1_D1)*%
X225912500Y-90219900D03*
%TO.P,SW4,2,2*%
%TO.N,Net-(D3-A)*%
X219562500Y-92759900D03*
%TD*%
D15*
%TO.P,D3,1,K*%
%TO.N,Net-(D1-K)*%
X213902500Y-99109900D03*
D16*
%TO.P,D3,2,A*%
%TO.N,Net-(D3-A)*%
X213902500Y-91489900D03*
%TD*%
D17*
%TO.P,D13,1,K*%
%TO.N,Net-(D13-K)*%
X220592500Y-83790600D03*
D16*
%TO.P,D13,2,A*%
%TO.N,Net-(D13-A)*%
X228212500Y-83790600D03*
%TD*%
D10*
%TO.P,D10,1,VDD*%
%TO.N,Net-(D10-VDD)*%
X207012500Y-101259900D03*
%TO.P,D10,2,DOUT*%
%TO.N,Net-(D10-DOUT)*%
X207012500Y-99759900D03*
%TO.P,D10,3,VSS*%
%TO.N,Net-(D10-VSS)*%
X201812500Y-99759900D03*
%TO.P,D10,4,DIN*%
%TO.N,Net-(D10-DIN)*%
X201812500Y-101259900D03*
%TD*%
D14*
%TO.P,SW6,1,1*%
%TO.N,Net-(U1-PA10_A2_D2)*%
X225912500Y-109269900D03*
%TO.P,SW6,2,2*%
%TO.N,Net-(D5-A)*%
X219562500Y-111809900D03*
%TD*%
D15*
%TO.P,D4,1,K*%
%TO.N,Net-(D2-K)*%
X175902500Y-118109900D03*
D16*
%TO.P,D4,2,A*%
%TO.N,Net-(D4-A)*%
X175902500Y-110489900D03*
%TD*%
D14*
%TO.P,SW5,1,1*%
%TO.N,Net-(U1-PA4_A1_D1)*%
X187812500Y-109269900D03*
%TO.P,SW5,2,2*%
%TO.N,Net-(D4-A)*%
X181462500Y-111809900D03*
%TD*%
D18*
%TO.P,J1,1,Pin_1*%
%TO.N,Net-(D10-VSS)*%
X176902500Y-78600600D03*
D19*
%TO.P,J1,2,Pin_2*%
%TO.N,Net-(J1-Pin_2)*%
X176902500Y-76060600D03*
%TO.P,J1,3,Pin_3*%
%TO.N,Net-(J1-Pin_3)*%
X176902500Y-73520600D03*
%TO.P,J1,4,Pin_4*%
%TO.N,Net-(J1-Pin_4)*%
X176902500Y-70980600D03*
%TD*%
D10*
%TO.P,D12,1,VDD*%
%TO.N,Net-(D10-VDD)*%
X187512500Y-101259900D03*
%TO.P,D12,2,DOUT*%
%TO.N,Nothing*%
X187512500Y-99759900D03*
%TO.P,D12,3,VSS*%
%TO.N,Net-(D10-VSS)*%
X182312500Y-99759900D03*
%TO.P,D12,4,DIN*%
%TO.N,Net-(D11-DOUT)*%
X182312500Y-101259900D03*
%TD*%
D15*
%TO.P,D6,1,K*%
%TO.N,Net-(D2-K)*%
X213902500Y-118109900D03*
D16*
%TO.P,D6,2,A*%
%TO.N,Net-(D6-A)*%
X213902500Y-110489900D03*
%TD*%
D14*
%TO.P,SW2,1,1*%
%TO.N,Net-(U1-PA02_A0_D0)*%
X187812500Y-90219900D03*
%TO.P,SW2,2,2*%
%TO.N,Net-(D1-A)*%
X181462500Y-92759900D03*
%TD*%
D15*
%TO.P,D1,1,K*%
%TO.N,Net-(D1-K)*%
X175902500Y-99109900D03*
D16*
%TO.P,D1,2,A*%
%TO.N,Net-(D1-A)*%
X175902500Y-91489900D03*
%TD*%
D15*
%TO.P,D5,1,K*%
%TO.N,Net-(D1-K)*%
X194902500Y-118109900D03*
D16*
%TO.P,D5,2,A*%
%TO.N,Net-(D5-A)*%
X194902500Y-110489900D03*
%TD*%
D20*
%TO.P,U1,1,PA02_A0_D0*%
%TO.N,Net-(U1-PA02_A0_D0)*%
X152282500Y-72170600D03*
D21*
X152282500Y-71335600D03*
D20*
%TO.P,U1,2,PA4_A1_D1*%
%TO.N,Net-(U1-PA4_A1_D1)*%
X154822500Y-72170600D03*
D21*
X154822500Y-71335600D03*
D20*
%TO.P,U1,3,PA10_A2_D2*%
%TO.N,Net-(U1-PA10_A2_D2)*%
X157362500Y-72170600D03*
D21*
X157362500Y-71335600D03*
D20*
%TO.P,U1,4,PA11_A3_D3*%
%TO.N,Net-(D7-DIN)*%
X159902500Y-72170600D03*
D21*
X159902500Y-71335600D03*
D20*
%TO.P,U1,5,PA8_A4_D4_SDA*%
%TO.N,Net-(J1-Pin_4)*%
X162442500Y-72170600D03*
D21*
X162442500Y-71335600D03*
D20*
%TO.P,U1,6,PA9_A5_D5_SCL*%
%TO.N,Net-(J1-Pin_3)*%
X164982500Y-72170600D03*
D21*
X164982500Y-71335600D03*
D20*
%TO.P,U1,7,PB08_A6_D6_TX*%
%TO.N,Net-(D1-K)*%
X167522500Y-72170600D03*
D21*
X167522500Y-71335600D03*
D22*
%TO.P,U1,8,PB09_A7_D7_RX*%
%TO.N,Net-(D2-K)*%
X167522500Y-88245600D03*
D20*
X167522500Y-87410600D03*
D22*
%TO.P,U1,9,PA7_A8_D8_SCK*%
%TO.N,Net-(U1-PA7_A8_D8_SCK)*%
X164982500Y-88245600D03*
D20*
X164982500Y-87410600D03*
D22*
%TO.P,U1,10,PA5_A9_D9_MISO*%
%TO.N,Net-(U1-PA5_A9_D9_MISO)*%
X162442500Y-88245600D03*
D20*
X162442500Y-87410600D03*
D22*
%TO.P,U1,11,PA6_A10_D10_MOSI*%
%TO.N,Net-(D13-K)*%
X159902500Y-88245600D03*
D20*
X159902500Y-87410600D03*
D22*
%TO.P,U1,12,3V3*%
%TO.N,Net-(J1-Pin_2)*%
X157362500Y-88245600D03*
D20*
X157362500Y-87410600D03*
D22*
%TO.P,U1,13,GND*%
%TO.N,Net-(D10-VSS)*%
X154822500Y-88245600D03*
D20*
X154822500Y-87410600D03*
D22*
%TO.P,U1,14,5V*%
%TO.N,Net-(D10-VDD)*%
X152282500Y-88245600D03*
D20*
X152282500Y-87410600D03*
%TD*%
D23*
%TO.N,Net-(D1-K)*%
X193000000Y-98000000D03*
%TO.N,Net-(D2-K)*%
X196527800Y-116954800D03*
%TO.N,Net-(D5-A)*%
X193000000Y-108106900D03*
%TO.N,Net-(U1-PA5_A9_D9_MISO)*%
X163250000Y-85610900D03*
%TO.N,Net-(U1-PA7_A8_D8_SCK)*%
X165443600Y-73761500D03*
%TO.N,Net-(D10-VDD)*%
X207875000Y-122126400D03*
X187535800Y-92927100D03*
X225766500Y-122026400D03*
%TO.N,Net-(U1-PA02_A0_D0)*%
X155082400Y-89979500D03*
%TO.N,Net-(U1-PA4_A1_D1)*%
X174857500Y-75948200D03*
X190212500Y-89486900D03*
%TO.N,Net-(U1-PA10_A2_D2)*%
X157300000Y-102182900D03*
%TO.N,Net-(D10-VSS)*%
X206582900Y-116183300D03*
X200197300Y-76041500D03*
X220537300Y-116930700D03*
%TO.N,Net-(D7-DIN)*%
X213697900Y-75397800D03*
%TO.N,Net-(D8-DOUT)*%
X201925000Y-122916900D03*
X225725000Y-122916900D03*
%TO.N,Net-(D10-DOUT)*%
X206981300Y-121831100D03*
X181100000Y-122916900D03*
%TD*%
D24*
%TO.N,Net-(D1-K)*%
X193000000Y-105029400D02*
X193000000Y-98000000D01*
X194902500Y-118109900D02*
X194902500Y-112615200D01*
X194902500Y-112615200D02*
X196065200Y-111452500D01*
X196065200Y-111452500D02*
X196065200Y-108094600D01*
X175902500Y-99109900D02*
X173991900Y-97199300D01*
X173991900Y-78640000D02*
X167522500Y-72170600D01*
X173991900Y-97199300D02*
X173991900Y-78640000D01*
X196065200Y-108094600D02*
X193000000Y-105029400D01*
X167522500Y-72170600D02*
X167522500Y-71335600D01*
%TO.N,Net-(D2-K)*%
X196527800Y-116954800D02*
X196527800Y-100735200D01*
X196527800Y-100735200D02*
X194902500Y-99109900D01*
X167522500Y-109729900D02*
X175902500Y-118109900D01*
X167522500Y-87410600D02*
X167522500Y-88245600D01*
X167522500Y-88245600D02*
X167522500Y-109729900D01*
%TO.N,Net-(D5-A)*%
X194902500Y-110489900D02*
X194902500Y-110009400D01*
X194902500Y-110009400D02*
X193000000Y-108106900D01*
%TO.N,Net-(J1-Pin_2)*%
X157362500Y-88245600D02*
X157362500Y-87410600D01*
%TO.N,Net-(J1-Pin_3)*%
X164982500Y-72170600D02*
X164982500Y-71335600D01*
%TO.N,Net-(J1-Pin_4)*%
X162442500Y-71335600D02*
X162442500Y-72170600D01*
%TO.N,Net-(U1-PA5_A9_D9_MISO)*%
X162442500Y-86418400D02*
X163250000Y-85610900D01*
X162442500Y-88245600D02*
X162442500Y-87410600D01*
X162442500Y-87410600D02*
X162442500Y-86418400D01*
%TO.N,Net-(U1-PA7_A8_D8_SCK)*%
X165443600Y-73761500D02*
X165443600Y-86949500D01*
X165443600Y-86949500D02*
X164982500Y-87410600D01*
X164982500Y-88245600D02*
X164982500Y-87410600D01*
%TO.N,Net-(D10-VDD)*%
X207012500Y-101259900D02*
X208317200Y-102564600D01*
X186341500Y-109897300D02*
X186341500Y-107210100D01*
X226012500Y-121780400D02*
X226012500Y-120259900D01*
X188654500Y-100294100D02*
X187688700Y-101259900D01*
X187876600Y-93267900D02*
X187876600Y-98424400D01*
X152282500Y-88245600D02*
X152282500Y-87410600D01*
X203724500Y-123546600D02*
X206825000Y-120446100D01*
X207932300Y-110419900D02*
X207932300Y-120105100D01*
X188654500Y-99202300D02*
X188654500Y-100294100D01*
X188622400Y-112178200D02*
X186341500Y-109897300D01*
X188622400Y-119239500D02*
X187602000Y-120259900D01*
X186341500Y-107210100D02*
X187512500Y-106039100D01*
X187876600Y-98424400D02*
X188654500Y-99202300D01*
X206825000Y-120446100D02*
X206825000Y-120162400D01*
X187602000Y-120259900D02*
X187512500Y-120259900D01*
X207932300Y-120105100D02*
X207875000Y-120162400D01*
X187688700Y-101259900D02*
X187512500Y-101259900D01*
X192929500Y-123546600D02*
X203724500Y-123546600D01*
X206825000Y-120162400D02*
X207875000Y-120162400D01*
X208317200Y-102564600D02*
X208317200Y-110035000D01*
X188622400Y-119239500D02*
X192929500Y-123546600D01*
X187512500Y-106039100D02*
X187512500Y-101259900D01*
X187535800Y-92927100D02*
X187876600Y-93267900D01*
X207875000Y-120162400D02*
X207875000Y-122126400D01*
X188622400Y-119239500D02*
X188622400Y-112178200D01*
X225766500Y-122026400D02*
X226012500Y-121780400D01*
X208317200Y-110035000D02*
X207932300Y-110419900D01*
%TO.N,Net-(U1-PA02_A0_D0)*%
X154183600Y-89979500D02*
X155082400Y-89979500D01*
X153552500Y-73440600D02*
X153552500Y-89348400D01*
X153552500Y-89348400D02*
X154183600Y-89979500D01*
X152282500Y-72170600D02*
X152282500Y-71335600D01*
X152282500Y-72170600D02*
X153552500Y-73440600D01*
%TO.N,Net-(U1-PA4_A1_D1)*%
X190212500Y-87741800D02*
X177379600Y-74908900D01*
X154822500Y-72170600D02*
X154822500Y-71335600D01*
X189097700Y-98966900D02*
X188978500Y-98847700D01*
X177379600Y-74908900D02*
X175896800Y-74908900D01*
X187812500Y-109269900D02*
X189097700Y-107984700D01*
X188812200Y-98681400D02*
X188812200Y-91207200D01*
X190212500Y-89806900D02*
X190212500Y-89486900D01*
X188812200Y-91207200D02*
X190212500Y-89806900D01*
X188978500Y-98847700D02*
X188812200Y-98681400D01*
X190212500Y-89486900D02*
X190212500Y-87741800D01*
X188978500Y-98847700D02*
X188812200Y-98681400D01*
X175896800Y-74908900D02*
X174857500Y-75948200D01*
X189097700Y-107984700D02*
X189097700Y-98966900D01*
%TO.N,Net-(U1-PA10_A2_D2)*%
X158473700Y-101009200D02*
X157300000Y-102182900D01*
X157362500Y-72170600D02*
X158473700Y-73281800D01*
X158473700Y-73281800D02*
X158473700Y-101009200D01*
X157362500Y-71335600D02*
X157362500Y-72170600D01*
%TO.N,Net-(D7-DOUT)*%
X225930200Y-99662400D02*
X226935300Y-100667500D01*
X219661000Y-117915800D02*
X219661000Y-119277300D01*
X222879100Y-110294300D02*
X222879100Y-110475700D01*
X220643600Y-120259900D02*
X220812500Y-120259900D01*
X219661000Y-119277300D02*
X220643600Y-120259900D01*
X222879100Y-110475700D02*
X219712000Y-113642800D01*
X219712000Y-113642800D02*
X219712000Y-117864800D01*
X219712000Y-117864800D02*
X219661000Y-117915800D01*
X226935300Y-106238100D02*
X222879100Y-110294300D01*
X225825000Y-99662400D02*
X225930200Y-99662400D01*
X226935300Y-100667500D02*
X226935300Y-106238100D01*
%TO.N,Net-(D10-VSS)*%
X178992500Y-99759900D02*
X182312500Y-99759900D01*
X201925000Y-93772000D02*
X201759800Y-93937200D01*
X154822500Y-87410600D02*
X154822500Y-88245600D01*
X197838600Y-115016400D02*
X197838600Y-103638700D01*
X182312500Y-118759900D02*
X178770100Y-115217500D01*
X220812500Y-117205900D02*
X220812500Y-118759900D01*
X200197300Y-76041500D02*
X201925000Y-77769200D01*
X178770100Y-115217500D02*
X178770100Y-99982300D01*
X199777000Y-116954800D02*
X197838600Y-115016400D01*
X197838600Y-103638700D02*
X201717400Y-99759900D01*
X201925000Y-77769200D02*
X201925000Y-93772000D01*
X201759800Y-99707200D02*
X201812500Y-99759900D01*
X178770100Y-99982300D02*
X178992500Y-99759900D01*
X201625000Y-116954800D02*
X205811400Y-116954800D01*
X201625000Y-116954800D02*
X199777000Y-116954800D01*
X201759800Y-93937200D02*
X201759800Y-99707200D01*
X177004200Y-78702300D02*
X177004200Y-97771600D01*
X201625000Y-118662400D02*
X201625000Y-116954800D01*
X177004200Y-97771600D02*
X178992500Y-99759900D01*
X220537300Y-116930700D02*
X220812500Y-117205900D01*
X205811400Y-116954800D02*
X206582900Y-116183300D01*
X176902500Y-78600600D02*
X177004200Y-78702300D01*
X201717400Y-99759900D02*
X201812500Y-99759900D01*
%TO.N,Net-(D7-DIN)*%
X215450000Y-96097500D02*
X215450000Y-77149900D01*
X215450000Y-77149900D02*
X213697900Y-75397800D01*
X220514900Y-101162400D02*
X215450000Y-96097500D01*
X220625000Y-101162400D02*
X220514900Y-101162400D01*
X159902500Y-71335600D02*
X159902500Y-72170600D01*
%TO.N,Net-(D8-DOUT)*%
X227130300Y-119734800D02*
X226155400Y-118759900D01*
X201925000Y-122916900D02*
X201625000Y-122616900D01*
X227130300Y-121513500D02*
X227130300Y-119734800D01*
X201625000Y-122616900D02*
X201625000Y-120162400D01*
X225726900Y-122916900D02*
X227130300Y-121513500D01*
X225725000Y-122916900D02*
X225726900Y-122916900D01*
X226155400Y-118759900D02*
X226012500Y-118759900D01*
%TO.N,Net-(D10-DIN)*%
X207184600Y-118302800D02*
X207184600Y-112235100D01*
X201812500Y-106863000D02*
X201812500Y-101259900D01*
X206825000Y-118662400D02*
X207184600Y-118302800D01*
X207184600Y-112235100D02*
X201812500Y-106863000D01*
%TO.N,Net-(D10-DOUT)*%
X207155500Y-99759900D02*
X210856600Y-103461000D01*
X206981300Y-122091600D02*
X206981300Y-121831100D01*
X210856600Y-120026000D02*
X208125300Y-122757300D01*
X210856600Y-103461000D02*
X210856600Y-120026000D01*
X207012500Y-99759900D02*
X207155500Y-99759900D01*
X208125300Y-122757300D02*
X207647000Y-122757300D01*
X182312500Y-121704400D02*
X182312500Y-120259900D01*
X181100000Y-122916900D02*
X182312500Y-121704400D01*
X207647000Y-122757300D02*
X206981300Y-122091600D01*
%TO.N,Net-(D11-DOUT)*%
X182312500Y-107697800D02*
X182312500Y-101259900D01*
X187860400Y-118412000D02*
X187860400Y-113245700D01*
X187512500Y-118759900D02*
X187860400Y-118412000D01*
X187860400Y-113245700D02*
X182312500Y-107697800D01*
%TO.N,Net-(D13-A)*%
X231652500Y-76790600D02*
X228212500Y-80230600D01*
X228212500Y-80230600D02*
X228212500Y-83790600D01*
%TO.N,Net-(D13-K)*%
X159902500Y-88245600D02*
X159902500Y-87410600D01*
%TD*%
M02*
