M48
; DRILL file {KiCad 9.0.7} date 2026-03-08T16:08:29+0400
; FORMAT={-:-/ absolute / metric / decimal}
; #@! TF.CreationDate,2026-03-08T16:08:29+04:00
; #@! TF.GenerationSoftware,Kicad,Pcbnew,9.0.7
; #@! TF.FileFunction,Plated,1,2,PTH
FMAT,2
METRIC
; #@! TA.AperFunction,Plated,PTH,ViaDrill
T1C0.300
; #@! TA.AperFunction,Plated,PTH,ComponentDrill
T2C0.800
; #@! TA.AperFunction,Plated,PTH,ComponentDrill
T3C0.889
; #@! TA.AperFunction,Plated,PTH,ComponentDrill
T4C1.000
; #@! TA.AperFunction,Plated,PTH,ComponentDrill
T5C1.500
%
G90
G05
T1
X155.082Y-89.98
X157.3Y-102.183
X163.25Y-85.611
X165.444Y-73.761
X174.857Y-75.948
X181.1Y-122.917
X187.536Y-92.927
X190.212Y-89.487
X193.0Y-98.0
X193.0Y-108.107
X196.528Y-116.955
X200.197Y-76.041
X201.925Y-122.917
X206.583Y-116.183
X206.981Y-121.831
X207.875Y-122.126
X213.698Y-75.398
X220.537Y-116.931
X225.725Y-122.917
X225.766Y-122.026
T2
X175.903Y-91.49
X175.903Y-99.11
X175.903Y-110.49
X175.903Y-118.11
X194.903Y-91.49
X194.903Y-99.11
X194.903Y-110.49
X194.903Y-118.11
X213.903Y-91.49
X213.903Y-99.11
X213.903Y-110.49
X213.903Y-118.11
X220.593Y-83.791
X228.212Y-83.791
T3
X152.282Y-72.171
X152.282Y-87.411
X154.822Y-72.171
X154.822Y-87.411
X157.362Y-72.171
X157.362Y-87.411
X159.903Y-72.171
X159.903Y-87.411
X162.442Y-72.171
X162.442Y-87.411
X164.982Y-72.171
X164.982Y-87.411
X167.522Y-72.171
X167.522Y-87.411
T4
X176.903Y-70.981
X176.903Y-73.521
X176.903Y-76.061
X176.903Y-78.601
X217.153Y-71.791
X217.153Y-74.291
X217.153Y-76.791
X231.653Y-71.791
X231.653Y-76.791
T5
X181.463Y-92.76
X181.463Y-111.81
X187.812Y-90.22
X187.812Y-109.27
X200.512Y-92.76
X200.512Y-111.81
X206.862Y-90.22
X206.862Y-109.27
X219.562Y-92.76
X219.562Y-111.81
X225.912Y-90.22
X225.912Y-109.27
T5
G00X224.002Y-68.691
M15
G01X225.302Y-68.691
M16
G05
G00X224.002Y-79.891
M15
G01X225.302Y-79.891
M16
G05
M30
