%TF.GenerationSoftware,KiCad,Pcbnew,9.0.7*%
%TF.CreationDate,2026-03-08T16:08:37+04:00*%
%TF.ProjectId,hackpad,6861636b-7061-4642-9e6b-696361645f70,rev?*%
%TF.SameCoordinates,Original*%
%TF.FileFunction,Legend,Bot*%
%TF.FilePolarity,Positive*%
%FSLAX46Y46*%
G04 Gerber Fmt 4.6, Leading zero omitted, Abs format (unit mm)*
G04 Created by KiCad (PCBNEW 9.0.7) date 2026-03-08 16:08:37*
%MOMM*%
%LPD*%
G01*
G04 APERTURE LIST*
%ADD10C,0.090000*%
%ADD11C,0.100000*%
%ADD12C,0.127000*%
%ADD13C,0.504000*%
G04 APERTURE END LIST*
D10*
X160354881Y-78383533D02*
X159973928Y-78383533D01*
X160431071Y-78612105D02*
X160164404Y-77812105D01*
X160164404Y-77812105D02*
X159897738Y-78612105D01*
X159669167Y-78574010D02*
X159554881Y-78612105D01*
X159554881Y-78612105D02*
X159364405Y-78612105D01*
X159364405Y-78612105D02*
X159288214Y-78574010D01*
X159288214Y-78574010D02*
X159250119Y-78535914D01*
X159250119Y-78535914D02*
X159212024Y-78459724D01*
X159212024Y-78459724D02*
X159212024Y-78383533D01*
X159212024Y-78383533D02*
X159250119Y-78307343D01*
X159250119Y-78307343D02*
X159288214Y-78269248D01*
X159288214Y-78269248D02*
X159364405Y-78231152D01*
X159364405Y-78231152D02*
X159516786Y-78193057D01*
X159516786Y-78193057D02*
X159592976Y-78154962D01*
X159592976Y-78154962D02*
X159631071Y-78116867D01*
X159631071Y-78116867D02*
X159669167Y-78040676D01*
X159669167Y-78040676D02*
X159669167Y-77964486D01*
X159669167Y-77964486D02*
X159631071Y-77888295D01*
X159631071Y-77888295D02*
X159592976Y-77850200D01*
X159592976Y-77850200D02*
X159516786Y-77812105D01*
X159516786Y-77812105D02*
X159326309Y-77812105D01*
X159326309Y-77812105D02*
X159212024Y-77850200D01*
X158907262Y-78574010D02*
X158792976Y-78612105D01*
X158792976Y-78612105D02*
X158602500Y-78612105D01*
X158602500Y-78612105D02*
X158526309Y-78574010D01*
X158526309Y-78574010D02*
X158488214Y-78535914D01*
X158488214Y-78535914D02*
X158450119Y-78459724D01*
X158450119Y-78459724D02*
X158450119Y-78383533D01*
X158450119Y-78383533D02*
X158488214Y-78307343D01*
X158488214Y-78307343D02*
X158526309Y-78269248D01*
X158526309Y-78269248D02*
X158602500Y-78231152D01*
X158602500Y-78231152D02*
X158754881Y-78193057D01*
X158754881Y-78193057D02*
X158831071Y-78154962D01*
X158831071Y-78154962D02*
X158869166Y-78116867D01*
X158869166Y-78116867D02*
X158907262Y-78040676D01*
X158907262Y-78040676D02*
X158907262Y-77964486D01*
X158907262Y-77964486D02*
X158869166Y-77888295D01*
X158869166Y-77888295D02*
X158831071Y-77850200D01*
X158831071Y-77850200D02*
X158754881Y-77812105D01*
X158754881Y-77812105D02*
X158564404Y-77812105D01*
X158564404Y-77812105D02*
X158450119Y-77850200D01*
X161078689Y-79900060D02*
X161078689Y-79100060D01*
X161078689Y-79100060D02*
X160812023Y-79671488D01*
X160812023Y-79671488D02*
X160545356Y-79100060D01*
X160545356Y-79100060D02*
X160545356Y-79900060D01*
X160164403Y-79900060D02*
X160164403Y-79100060D01*
X159326308Y-79823869D02*
X159364404Y-79861965D01*
X159364404Y-79861965D02*
X159478689Y-79900060D01*
X159478689Y-79900060D02*
X159554880Y-79900060D01*
X159554880Y-79900060D02*
X159669166Y-79861965D01*
X159669166Y-79861965D02*
X159745356Y-79785774D01*
X159745356Y-79785774D02*
X159783451Y-79709584D01*
X159783451Y-79709584D02*
X159821547Y-79557203D01*
X159821547Y-79557203D02*
X159821547Y-79442917D01*
X159821547Y-79442917D02*
X159783451Y-79290536D01*
X159783451Y-79290536D02*
X159745356Y-79214345D01*
X159745356Y-79214345D02*
X159669166Y-79138155D01*
X159669166Y-79138155D02*
X159554880Y-79100060D01*
X159554880Y-79100060D02*
X159478689Y-79100060D01*
X159478689Y-79100060D02*
X159364404Y-79138155D01*
X159364404Y-79138155D02*
X159326308Y-79176250D01*
X158526308Y-79900060D02*
X158792975Y-79519107D01*
X158983451Y-79900060D02*
X158983451Y-79100060D01*
X158983451Y-79100060D02*
X158678689Y-79100060D01*
X158678689Y-79100060D02*
X158602499Y-79138155D01*
X158602499Y-79138155D02*
X158564404Y-79176250D01*
X158564404Y-79176250D02*
X158526308Y-79252441D01*
X158526308Y-79252441D02*
X158526308Y-79366726D01*
X158526308Y-79366726D02*
X158564404Y-79442917D01*
X158564404Y-79442917D02*
X158602499Y-79481012D01*
X158602499Y-79481012D02*
X158678689Y-79519107D01*
X158678689Y-79519107D02*
X158983451Y-79519107D01*
X158031070Y-79100060D02*
X157878689Y-79100060D01*
X157878689Y-79100060D02*
X157802499Y-79138155D01*
X157802499Y-79138155D02*
X157726308Y-79214345D01*
X157726308Y-79214345D02*
X157688213Y-79366726D01*
X157688213Y-79366726D02*
X157688213Y-79633393D01*
X157688213Y-79633393D02*
X157726308Y-79785774D01*
X157726308Y-79785774D02*
X157802499Y-79861965D01*
X157802499Y-79861965D02*
X157878689Y-79900060D01*
X157878689Y-79900060D02*
X158031070Y-79900060D01*
X158031070Y-79900060D02*
X158107261Y-79861965D01*
X158107261Y-79861965D02*
X158183451Y-79785774D01*
X158183451Y-79785774D02*
X158221547Y-79633393D01*
X158221547Y-79633393D02*
X158221547Y-79366726D01*
X158221547Y-79366726D02*
X158183451Y-79214345D01*
X158183451Y-79214345D02*
X158107261Y-79138155D01*
X158107261Y-79138155D02*
X158031070Y-79100060D01*
X162202499Y-81111824D02*
X162240595Y-81149920D01*
X162240595Y-81149920D02*
X162354880Y-81188015D01*
X162354880Y-81188015D02*
X162431071Y-81188015D01*
X162431071Y-81188015D02*
X162545357Y-81149920D01*
X162545357Y-81149920D02*
X162621547Y-81073729D01*
X162621547Y-81073729D02*
X162659642Y-80997539D01*
X162659642Y-80997539D02*
X162697738Y-80845158D01*
X162697738Y-80845158D02*
X162697738Y-80730872D01*
X162697738Y-80730872D02*
X162659642Y-80578491D01*
X162659642Y-80578491D02*
X162621547Y-80502300D01*
X162621547Y-80502300D02*
X162545357Y-80426110D01*
X162545357Y-80426110D02*
X162431071Y-80388015D01*
X162431071Y-80388015D02*
X162354880Y-80388015D01*
X162354880Y-80388015D02*
X162240595Y-80426110D01*
X162240595Y-80426110D02*
X162202499Y-80464205D01*
X161707261Y-80388015D02*
X161554880Y-80388015D01*
X161554880Y-80388015D02*
X161478690Y-80426110D01*
X161478690Y-80426110D02*
X161402499Y-80502300D01*
X161402499Y-80502300D02*
X161364404Y-80654681D01*
X161364404Y-80654681D02*
X161364404Y-80921348D01*
X161364404Y-80921348D02*
X161402499Y-81073729D01*
X161402499Y-81073729D02*
X161478690Y-81149920D01*
X161478690Y-81149920D02*
X161554880Y-81188015D01*
X161554880Y-81188015D02*
X161707261Y-81188015D01*
X161707261Y-81188015D02*
X161783452Y-81149920D01*
X161783452Y-81149920D02*
X161859642Y-81073729D01*
X161859642Y-81073729D02*
X161897738Y-80921348D01*
X161897738Y-80921348D02*
X161897738Y-80654681D01*
X161897738Y-80654681D02*
X161859642Y-80502300D01*
X161859642Y-80502300D02*
X161783452Y-80426110D01*
X161783452Y-80426110D02*
X161707261Y-80388015D01*
X161021547Y-81188015D02*
X161021547Y-80388015D01*
X161021547Y-80388015D02*
X160564404Y-81188015D01*
X160564404Y-81188015D02*
X160564404Y-80388015D01*
X160297738Y-80388015D02*
X159840595Y-80388015D01*
X160069167Y-81188015D02*
X160069167Y-80388015D01*
X159116785Y-81188015D02*
X159383452Y-80807062D01*
X159573928Y-81188015D02*
X159573928Y-80388015D01*
X159573928Y-80388015D02*
X159269166Y-80388015D01*
X159269166Y-80388015D02*
X159192976Y-80426110D01*
X159192976Y-80426110D02*
X159154881Y-80464205D01*
X159154881Y-80464205D02*
X159116785Y-80540396D01*
X159116785Y-80540396D02*
X159116785Y-80654681D01*
X159116785Y-80654681D02*
X159154881Y-80730872D01*
X159154881Y-80730872D02*
X159192976Y-80768967D01*
X159192976Y-80768967D02*
X159269166Y-80807062D01*
X159269166Y-80807062D02*
X159573928Y-80807062D01*
X158621547Y-80388015D02*
X158469166Y-80388015D01*
X158469166Y-80388015D02*
X158392976Y-80426110D01*
X158392976Y-80426110D02*
X158316785Y-80502300D01*
X158316785Y-80502300D02*
X158278690Y-80654681D01*
X158278690Y-80654681D02*
X158278690Y-80921348D01*
X158278690Y-80921348D02*
X158316785Y-81073729D01*
X158316785Y-81073729D02*
X158392976Y-81149920D01*
X158392976Y-81149920D02*
X158469166Y-81188015D01*
X158469166Y-81188015D02*
X158621547Y-81188015D01*
X158621547Y-81188015D02*
X158697738Y-81149920D01*
X158697738Y-81149920D02*
X158773928Y-81073729D01*
X158773928Y-81073729D02*
X158812024Y-80921348D01*
X158812024Y-80921348D02*
X158812024Y-80654681D01*
X158812024Y-80654681D02*
X158773928Y-80502300D01*
X158773928Y-80502300D02*
X158697738Y-80426110D01*
X158697738Y-80426110D02*
X158621547Y-80388015D01*
X157554881Y-81188015D02*
X157935833Y-81188015D01*
X157935833Y-81188015D02*
X157935833Y-80388015D01*
X157288214Y-80768967D02*
X157021548Y-80768967D01*
X156907262Y-81188015D02*
X157288214Y-81188015D01*
X157288214Y-81188015D02*
X157288214Y-80388015D01*
X157288214Y-80388015D02*
X156907262Y-80388015D01*
X156107261Y-81188015D02*
X156373928Y-80807062D01*
X156564404Y-81188015D02*
X156564404Y-80388015D01*
X156564404Y-80388015D02*
X156259642Y-80388015D01*
X156259642Y-80388015D02*
X156183452Y-80426110D01*
X156183452Y-80426110D02*
X156145357Y-80464205D01*
X156145357Y-80464205D02*
X156107261Y-80540396D01*
X156107261Y-80540396D02*
X156107261Y-80654681D01*
X156107261Y-80654681D02*
X156145357Y-80730872D01*
X156145357Y-80730872D02*
X156183452Y-80768967D01*
X156183452Y-80768967D02*
X156259642Y-80807062D01*
X156259642Y-80807062D02*
X156564404Y-80807062D01*
D11*
%TO.C,D7*%
X219025000Y-99412400D02*
X219025000Y-98512400D01*
X219925000Y-98512400D01*
X219025000Y-99412400D01*
G36*
X219025000Y-99412400D02*
G01*
X219025000Y-98512400D01*
X219925000Y-98512400D01*
X219025000Y-99412400D01*
G37*
%TO.C,D11*%
X180712500Y-118509900D02*
X180712500Y-117609900D01*
X181612500Y-117609900D01*
X180712500Y-118509900D01*
G36*
X180712500Y-118509900D02*
G01*
X180712500Y-117609900D01*
X181612500Y-117609900D01*
X180712500Y-118509900D01*
G37*
%TO.C,D8*%
X219212500Y-118509900D02*
X219212500Y-117609900D01*
X220112500Y-117609900D01*
X219212500Y-118509900D01*
G36*
X219212500Y-118509900D02*
G01*
X219212500Y-117609900D01*
X220112500Y-117609900D01*
X219212500Y-118509900D01*
G37*
%TO.C,D9*%
X200025000Y-118412400D02*
X200025000Y-117512400D01*
X200925000Y-117512400D01*
X200025000Y-118412400D01*
G36*
X200025000Y-118412400D02*
G01*
X200025000Y-117512400D01*
X200925000Y-117512400D01*
X200025000Y-118412400D01*
G37*
%TO.C,D10*%
X200212500Y-99509900D02*
X200212500Y-98609900D01*
X201112500Y-98609900D01*
X200212500Y-99509900D01*
G36*
X200212500Y-99509900D02*
G01*
X200212500Y-98609900D01*
X201112500Y-98609900D01*
X200212500Y-99509900D01*
G37*
%TO.C,D12*%
X180712500Y-99509900D02*
X180712500Y-98609900D01*
X181612500Y-98609900D01*
X180712500Y-99509900D01*
G36*
X180712500Y-99509900D02*
G01*
X180712500Y-98609900D01*
X181612500Y-98609900D01*
X180712500Y-99509900D01*
G37*
D12*
%TO.C,U1*%
X147951500Y-75799328D02*
X147951500Y-83794600D01*
X148451500Y-84294600D02*
X149361500Y-84294600D01*
X149361500Y-75295600D02*
X148451228Y-75299328D01*
D11*
X149361500Y-86775600D02*
X149361500Y-72805600D01*
D12*
X149361500Y-86775600D02*
X149361500Y-72805600D01*
X168411500Y-70900600D02*
X151266500Y-70900600D01*
X168411500Y-88680600D02*
X151266500Y-88680600D01*
X170316500Y-72805600D02*
X170316500Y-86775600D01*
X147951500Y-75799328D02*
G75*
G02*
X148451228Y-75299300I500000J28D01*
G01*
X148451500Y-84294600D02*
G75*
G02*
X147951500Y-83794600I0J500000D01*
G01*
X149361500Y-72805600D02*
G75*
G02*
X151266500Y-70900600I1905000J0D01*
G01*
X151266500Y-88680600D02*
G75*
G02*
X149361500Y-86775600I0J1905000D01*
G01*
X168411500Y-70900600D02*
G75*
G02*
X170316500Y-72805600I-1J-1905001D01*
G01*
X170316500Y-86775600D02*
G75*
G02*
X168411500Y-88680600I-1905001J1D01*
G01*
D13*
X149854500Y-70840600D02*
G75*
G02*
X149350500Y-70840600I-252000J0D01*
G01*
X149350500Y-70840600D02*
G75*
G02*
X149854500Y-70840600I252000J0D01*
G01*
X150734500Y-71983600D02*
G75*
G02*
X150230500Y-71983600I-252000J0D01*
G01*
X150230500Y-71983600D02*
G75*
G02*
X150734500Y-71983600I252000J0D01*
G01*
%TD*%
M02*
